<?xml version="1.0" encoding="UTF-8"?>
<svg id="Lager_1" xmlns="http://www.w3.org/2000/svg" width="100mm" height="100mm" viewBox="0 0 283.46 283.46">
  <defs>
    <style>
      .cls-1 {
        fill: #1d1d1b;
      }
    </style>
  </defs>
  <path class="cls-1" d="M47.55,41.06c16.78,36.1,52.63,59.6,92.12,60.38,40.94.81,78.81-22.94,96.24-60.38-62.79,0-125.57,0-188.36,0Z"/>
  <path class="cls-1" d="M235.69,177.16c-8.02-2.42-22.62-7.99-36.64-20.9-15.31-14.1-22.1-29.75-24.95-37.76h-64.73c-2.85,8.01-9.64,23.66-24.95,37.76-14.02,12.91-28.62,18.48-36.64,20.9-.07,21.73-.15,43.46-.22,65.18,9.88.33,48.64.47,82.72-28.1,4.22-3.54,8.02-7.24,11.46-11.04,3.44,3.8,7.24,7.5,11.46,11.04,34.08,28.56,72.83,28.43,82.72,28.1-.07-21.73-.15-43.46-.22-65.18Z"/>
</svg>