<svg width="735" height="262" viewBox="0 0 735 262" fill="none" xmlns="http://www.w3.org/2000/svg">
<path d="M558.579 239.031C558.525 238.572 558.304 238.215 557.917 237.961C557.53 237.707 557.055 237.58 556.492 237.58C556.081 237.58 555.721 237.646 555.412 237.779C555.107 237.912 554.868 238.095 554.696 238.328C554.526 238.561 554.442 238.826 554.442 239.122C554.442 239.37 554.501 239.583 554.618 239.762C554.739 239.937 554.894 240.084 555.081 240.202C555.269 240.317 555.465 240.412 555.671 240.488C555.877 240.56 556.066 240.619 556.238 240.665L557.182 240.919C557.424 240.982 557.693 241.07 557.989 241.182C558.289 241.294 558.575 241.447 558.847 241.64C559.122 241.831 559.349 242.076 559.527 242.375C559.706 242.675 559.795 243.042 559.795 243.478C559.795 243.98 559.663 244.433 559.4 244.839C559.14 245.244 558.759 245.566 558.257 245.805C557.758 246.044 557.152 246.163 556.438 246.163C555.772 246.163 555.196 246.056 554.709 245.841C554.225 245.626 553.844 245.327 553.566 244.943C553.291 244.559 553.135 244.113 553.099 243.605H554.26C554.29 243.955 554.408 244.246 554.614 244.476C554.823 244.702 555.086 244.872 555.403 244.984C555.724 245.093 556.069 245.147 556.438 245.147C556.867 245.147 557.253 245.078 557.595 244.938C557.936 244.796 558.207 244.6 558.407 244.349C558.606 244.095 558.706 243.798 558.706 243.459C558.706 243.151 558.62 242.9 558.448 242.706C558.275 242.513 558.048 242.355 557.767 242.234C557.486 242.113 557.182 242.008 556.855 241.917L555.712 241.59C554.986 241.382 554.411 241.084 553.988 240.696C553.564 240.309 553.353 239.803 553.353 239.177C553.353 238.656 553.493 238.203 553.775 237.816C554.059 237.425 554.44 237.123 554.918 236.908C555.399 236.69 555.936 236.582 556.528 236.582C557.127 236.582 557.66 236.689 558.125 236.904C558.591 237.115 558.96 237.406 559.232 237.775C559.508 238.144 559.653 238.563 559.668 239.031H558.579ZM564.421 246.145C563.75 246.145 563.171 245.997 562.684 245.701C562.2 245.401 561.826 244.984 561.563 244.448C561.303 243.91 561.173 243.284 561.173 242.57C561.173 241.856 561.303 241.227 561.563 240.683C561.826 240.135 562.192 239.709 562.661 239.403C563.133 239.095 563.683 238.941 564.312 238.941C564.675 238.941 565.034 239.001 565.388 239.122C565.742 239.243 566.064 239.44 566.354 239.712C566.644 239.981 566.876 240.338 567.048 240.783C567.221 241.227 567.307 241.775 567.307 242.425V242.879H561.935V241.953H566.218C566.218 241.56 566.139 241.209 565.982 240.901C565.828 240.592 565.607 240.349 565.32 240.17C565.035 239.992 564.7 239.903 564.312 239.903C563.886 239.903 563.517 240.008 563.205 240.22C562.897 240.429 562.66 240.701 562.493 241.037C562.327 241.372 562.244 241.732 562.244 242.117V242.734C562.244 243.26 562.334 243.706 562.516 244.072C562.7 244.435 562.956 244.712 563.283 244.902C563.609 245.09 563.989 245.183 564.421 245.183C564.703 245.183 564.957 245.144 565.184 245.065C565.413 244.984 565.611 244.863 565.778 244.702C565.944 244.539 566.073 244.337 566.163 244.095L567.198 244.385C567.089 244.736 566.906 245.044 566.649 245.31C566.392 245.574 566.074 245.779 565.696 245.927C565.318 246.073 564.893 246.145 564.421 246.145ZM571.966 239.031V239.939H568.355V239.031H571.966ZM569.407 237.362H570.478V244.004C570.478 244.306 570.522 244.533 570.61 244.684C570.7 244.833 570.815 244.932 570.954 244.984C571.096 245.032 571.246 245.056 571.403 245.056C571.521 245.056 571.618 245.05 571.694 245.038C571.769 245.023 571.83 245.011 571.875 245.002L572.093 245.964C572.02 245.991 571.919 246.018 571.789 246.045C571.659 246.076 571.494 246.091 571.295 246.091C570.992 246.091 570.696 246.026 570.405 245.896C570.118 245.766 569.879 245.567 569.689 245.301C569.501 245.035 569.407 244.699 569.407 244.294V237.362ZM576.607 239.031V239.939H572.996V239.031H576.607ZM574.048 237.362H575.119V244.004C575.119 244.306 575.163 244.533 575.251 244.684C575.341 244.833 575.456 244.932 575.595 244.984C575.738 245.032 575.887 245.056 576.045 245.056C576.163 245.056 576.259 245.05 576.335 245.038C576.411 245.023 576.471 245.011 576.516 245.002L576.734 245.964C576.662 245.991 576.56 246.018 576.43 246.045C576.3 246.076 576.135 246.091 575.936 246.091C575.633 246.091 575.337 246.026 575.047 245.896C574.759 245.766 574.52 245.567 574.33 245.301C574.142 245.035 574.048 244.699 574.048 244.294V237.362ZM579.438 236.709V246H578.367V236.709H579.438ZM584.321 246.145C583.649 246.145 583.07 245.997 582.583 245.701C582.099 245.401 581.726 244.984 581.463 244.448C581.203 243.91 581.073 243.284 581.073 242.57C581.073 241.856 581.203 241.227 581.463 240.683C581.726 240.135 582.092 239.709 582.561 239.403C583.032 239.095 583.583 238.941 584.212 238.941C584.575 238.941 584.933 239.001 585.287 239.122C585.641 239.243 585.963 239.44 586.254 239.712C586.544 239.981 586.775 240.338 586.948 240.783C587.12 241.227 587.206 241.775 587.206 242.425V242.879H581.835V241.953H586.117C586.117 241.56 586.039 241.209 585.882 240.901C585.727 240.592 585.506 240.349 585.219 240.17C584.935 239.992 584.599 239.903 584.212 239.903C583.786 239.903 583.417 240.008 583.105 240.22C582.796 240.429 582.559 240.701 582.393 241.037C582.226 241.372 582.143 241.732 582.143 242.117V242.734C582.143 243.26 582.234 243.706 582.415 244.072C582.6 244.435 582.855 244.712 583.182 244.902C583.509 245.09 583.888 245.183 584.321 245.183C584.602 245.183 584.856 245.144 585.083 245.065C585.313 244.984 585.511 244.863 585.677 244.702C585.844 244.539 585.972 244.337 586.063 244.095L587.097 244.385C586.988 244.736 586.806 245.044 586.548 245.31C586.291 245.574 585.974 245.779 585.596 245.927C585.218 246.073 584.793 246.145 584.321 246.145ZM588.835 246V239.031H589.869V240.12H589.96C590.105 239.748 590.34 239.459 590.663 239.254C590.987 239.045 591.376 238.941 591.829 238.941C592.289 238.941 592.672 239.045 592.977 239.254C593.286 239.459 593.526 239.748 593.698 240.12H593.771C593.949 239.76 594.217 239.475 594.574 239.263C594.931 239.048 595.359 238.941 595.858 238.941C596.481 238.941 596.991 239.136 597.387 239.526C597.783 239.913 597.981 240.517 597.981 241.336V246H596.91V241.336C596.91 240.822 596.77 240.455 596.489 240.234C596.207 240.013 595.876 239.903 595.495 239.903C595.005 239.903 594.625 240.051 594.356 240.347C594.087 240.641 593.952 241.013 593.952 241.463V246H592.864V241.227C592.864 240.831 592.735 240.512 592.478 240.27C592.221 240.025 591.89 239.903 591.484 239.903C591.206 239.903 590.946 239.977 590.704 240.125C590.465 240.273 590.272 240.479 590.123 240.742C589.978 241.002 589.906 241.303 589.906 241.645V246H588.835ZM602.86 246.145C602.189 246.145 601.61 245.997 601.123 245.701C600.639 245.401 600.265 244.984 600.002 244.448C599.742 243.91 599.612 243.284 599.612 242.57C599.612 241.856 599.742 241.227 600.002 240.683C600.265 240.135 600.631 239.709 601.1 239.403C601.572 239.095 602.122 238.941 602.752 238.941C603.115 238.941 603.473 239.001 603.827 239.122C604.181 239.243 604.503 239.44 604.793 239.712C605.084 239.981 605.315 240.338 605.487 240.783C605.66 241.227 605.746 241.775 605.746 242.425V242.879H600.374V241.953H604.657C604.657 241.56 604.578 241.209 604.421 240.901C604.267 240.592 604.046 240.349 603.759 240.17C603.474 239.992 603.139 239.903 602.752 239.903C602.325 239.903 601.956 240.008 601.645 240.22C601.336 240.429 601.099 240.701 600.932 241.037C600.766 241.372 600.683 241.732 600.683 242.117V242.734C600.683 243.26 600.774 243.706 600.955 244.072C601.14 244.435 601.395 244.712 601.722 244.902C602.048 245.09 602.428 245.183 602.86 245.183C603.142 245.183 603.396 245.144 603.623 245.065C603.853 244.984 604.051 244.863 604.217 244.702C604.383 244.539 604.512 244.337 604.603 244.095L605.637 244.385C605.528 244.736 605.345 245.044 605.088 245.31C604.831 245.574 604.513 245.779 604.135 245.927C603.757 246.073 603.332 246.145 602.86 246.145ZM608.445 241.808V246H607.375V239.031H608.409V240.12H608.5C608.663 239.766 608.911 239.482 609.244 239.267C609.576 239.05 610.006 238.941 610.532 238.941C611.004 238.941 611.417 239.038 611.771 239.231C612.125 239.422 612.4 239.712 612.596 240.102C612.793 240.489 612.891 240.979 612.891 241.572V246H611.821V241.645C611.821 241.097 611.678 240.671 611.394 240.365C611.11 240.057 610.72 239.903 610.224 239.903C609.882 239.903 609.576 239.977 609.307 240.125C609.041 240.273 608.831 240.489 608.677 240.774C608.522 241.058 608.445 241.403 608.445 241.808ZM617.878 239.031V239.939H614.267V239.031H617.878ZM615.32 237.362H616.39V244.004C616.39 244.306 616.434 244.533 616.522 244.684C616.613 244.833 616.728 244.932 616.867 244.984C617.009 245.032 617.159 245.056 617.316 245.056C617.434 245.056 617.531 245.05 617.606 245.038C617.682 245.023 617.742 245.011 617.788 245.002L618.005 245.964C617.933 245.991 617.832 246.018 617.701 246.045C617.571 246.076 617.407 246.091 617.207 246.091C616.905 246.091 616.608 246.026 616.318 245.896C616.03 245.766 615.791 245.567 615.601 245.301C615.413 245.035 615.32 244.699 615.32 244.294V237.362Z" fill="black"/>
<path d="M658.473 1.55273V35.7098" stroke="black" stroke-width="2.12927" stroke-linecap="round" stroke-linejoin="round"/>
<path d="M666.239 7.7627H654.594C653.153 7.7627 651.771 8.33521 650.752 9.3543C649.733 10.3734 649.16 11.7556 649.16 13.1968C649.16 14.638 649.733 16.0202 650.752 17.0392C651.771 18.0583 653.153 18.6308 654.594 18.6308H662.357C663.798 18.6308 665.181 19.2034 666.2 20.2224C667.219 21.2415 667.791 22.6237 667.791 24.0649C667.791 25.5061 667.219 26.8883 666.2 27.9074C665.181 28.9265 663.798 29.499 662.357 29.499H649.16" stroke="black" stroke-width="2.12927" stroke-linecap="round" stroke-linejoin="round"/>
<path d="M607.592 19.9159C608.008 19.5001 608.008 18.826 607.592 18.4103L600.817 11.635C600.401 11.2192 599.727 11.2192 599.311 11.635C598.895 12.0507 598.895 12.7248 599.311 13.1406L605.334 19.1631L599.311 25.1856C598.895 25.6013 598.895 26.2754 599.311 26.6912C599.727 27.107 600.401 27.107 600.817 26.6912L607.592 19.9159ZM472.695 19.1631V20.2277H474.791V19.1631V18.0985H472.695V19.1631ZM478.983 19.1631V20.2277H483.175V19.1631V18.0985H478.983V19.1631ZM487.367 19.1631V20.2277H491.559V19.1631V18.0985H487.367V19.1631ZM495.751 19.1631V20.2277H499.943V19.1631V18.0985H495.751V19.1631ZM504.135 19.1631V20.2277H508.327V19.1631V18.0985H504.135V19.1631ZM512.519 19.1631V20.2277H516.711V19.1631V18.0985H512.519V19.1631ZM520.903 19.1631V20.2277H525.095V19.1631V18.0985H520.903V19.1631ZM529.287 19.1631V20.2277H533.479V19.1631V18.0985H529.287V19.1631ZM537.671 19.1631V20.2277H541.863V19.1631V18.0985H537.671V19.1631ZM546.055 19.1631V20.2277H550.247V19.1631V18.0985H546.055V19.1631ZM554.439 19.1631V20.2277H558.631V19.1631V18.0985H554.439V19.1631ZM562.823 19.1631V20.2277H567.015V19.1631V18.0985H562.823V19.1631ZM571.207 19.1631V20.2277H575.399V19.1631V18.0985H571.207V19.1631ZM579.591 19.1631V20.2277H583.783V19.1631V18.0985H579.591V19.1631ZM587.975 19.1631V20.2277H592.167V19.1631V18.0985H587.975V19.1631ZM596.359 19.1631V20.2277H600.551V19.1631V18.0985H596.359V19.1631ZM604.743 19.1631V20.2277H606.839V19.1631V18.0985H604.743V19.1631Z" fill="black"/>
<path d="M646.232 52.4561V43.1647H649.48C650.128 43.1647 650.662 43.2766 651.082 43.5004C651.502 43.7212 651.815 44.0191 652.021 44.3942C652.227 44.7662 652.33 45.179 652.33 45.6327C652.33 46.032 652.258 46.3616 652.116 46.6217C651.977 46.8818 651.793 47.0875 651.563 47.2387C651.336 47.39 651.09 47.5019 650.823 47.5745V47.6652C651.108 47.6833 651.393 47.7832 651.681 47.9646C651.968 48.1461 652.209 48.4062 652.402 48.745C652.596 49.0837 652.693 49.4981 652.693 49.988C652.693 50.4538 652.587 50.8727 652.375 51.2447C652.163 51.6167 651.829 51.9116 651.372 52.1294C650.916 52.3472 650.321 52.4561 649.589 52.4561H646.232ZM647.357 51.458H649.589C650.324 51.458 650.846 51.3158 651.155 51.0315C651.466 50.7442 651.622 50.3963 651.622 49.988C651.622 49.6735 651.542 49.3831 651.381 49.117C651.221 48.8478 650.993 48.633 650.696 48.4727C650.4 48.3094 650.049 48.2278 649.644 48.2278H647.357V51.458ZM647.357 47.2478H649.444C649.783 47.2478 650.088 47.1813 650.361 47.0482C650.636 46.9151 650.854 46.7276 651.014 46.4856C651.177 46.2437 651.259 45.9594 651.259 45.6327C651.259 45.2244 651.117 44.8781 650.832 44.5938C650.548 44.3065 650.097 44.1628 649.48 44.1628H647.357V47.2478ZM656.447 52.6194C656.005 52.6194 655.604 52.5362 655.244 52.3699C654.885 52.2005 654.599 51.957 654.387 51.6394C654.175 51.3188 654.069 50.9317 654.069 50.478C654.069 50.0788 654.148 49.7551 654.305 49.5071C654.463 49.2561 654.673 49.0595 654.936 48.9174C655.199 48.7752 655.489 48.6693 655.807 48.5998C656.128 48.5272 656.45 48.4697 656.773 48.4274C657.197 48.3729 657.54 48.3321 657.803 48.3049C658.069 48.2746 658.263 48.2247 658.384 48.1552C658.508 48.0856 658.57 47.9646 658.57 47.7922V47.7559C658.57 47.3083 658.447 46.9605 658.202 46.7125C657.96 46.4645 657.593 46.3405 657.1 46.3405C656.589 46.3405 656.188 46.4524 655.898 46.6762C655.607 46.9 655.403 47.1389 655.285 47.393L654.269 47.03C654.451 46.6066 654.692 46.2769 654.995 46.041C655.3 45.8021 655.633 45.6357 655.993 45.542C656.356 45.4452 656.713 45.3968 657.064 45.3968C657.288 45.3968 657.545 45.424 657.835 45.4785C658.128 45.5299 658.411 45.6373 658.683 45.8006C658.959 45.9639 659.187 46.2104 659.368 46.5401C659.55 46.8697 659.641 47.3113 659.641 47.8648V52.4561H658.57V51.5124H658.515C658.443 51.6636 658.322 51.8254 658.153 51.9978C657.983 52.1702 657.758 52.3169 657.477 52.4379C657.195 52.5589 656.852 52.6194 656.447 52.6194ZM656.61 51.6576C657.033 51.6576 657.39 51.5744 657.681 51.4081C657.974 51.2417 658.195 51.027 658.343 50.7638C658.494 50.5007 658.57 50.224 658.57 49.9336V48.9536C658.525 49.0081 658.425 49.058 658.27 49.1034C658.119 49.1457 657.944 49.1835 657.744 49.2168C657.548 49.247 657.356 49.2742 657.168 49.2984C656.984 49.3196 656.834 49.3378 656.719 49.3529C656.441 49.3892 656.181 49.4482 655.939 49.5298C655.7 49.6085 655.506 49.7279 655.358 49.8882C655.213 50.0455 655.14 50.2602 655.14 50.5325C655.14 50.9045 655.278 51.1858 655.553 51.3763C655.831 51.5638 656.184 51.6576 656.61 51.6576ZM662.666 48.2641V52.4561H661.595V45.4875H662.629V46.5764H662.72C662.883 46.2225 663.131 45.9382 663.464 45.7235C663.797 45.5057 664.226 45.3968 664.752 45.3968C665.224 45.3968 665.637 45.4936 665.991 45.6872C666.345 45.8777 666.62 46.1681 666.817 46.5582C667.013 46.9454 667.112 47.4353 667.112 48.0281V52.4561H666.041V48.1007C666.041 47.5533 665.899 47.1268 665.614 46.8214C665.33 46.5129 664.94 46.3586 664.444 46.3586C664.102 46.3586 663.797 46.4327 663.528 46.5809C663.261 46.7291 663.051 46.9454 662.897 47.2297C662.743 47.514 662.666 47.8588 662.666 48.2641ZM670.066 49.9154L670.048 48.5907H670.266L673.315 45.4875H674.639L671.391 48.7722H671.3L670.066 49.9154ZM669.068 52.4561V43.1647H670.139V52.4561H669.068ZM673.496 52.4561L670.774 49.0081L671.536 48.2641L674.857 52.4561H673.496Z" fill="black"/>
<g clip-path="url(#clip0_238_433)">
<path d="M658.473 75.0127V109.17" stroke="black" stroke-width="2.12927" stroke-linecap="round" stroke-linejoin="round"/>
<path d="M666.239 81.2227H654.594C653.153 81.2227 651.771 81.7952 650.752 82.8143C649.733 83.8333 649.16 85.2155 649.16 86.6567C649.16 88.0979 649.733 89.4801 650.752 90.4992C651.771 91.5183 653.153 92.0908 654.594 92.0908H662.357C663.798 92.0908 665.181 92.6633 666.2 93.6824C667.219 94.7015 667.791 96.0837 667.791 97.5249C667.791 98.9661 667.219 100.348 666.2 101.367C665.181 102.386 663.798 102.959 662.357 102.959H649.16" stroke="black" stroke-width="2.12927" stroke-linecap="round" stroke-linejoin="round"/>
</g>
<path d="M607.592 93.3759C608.008 92.9601 608.008 92.286 607.592 91.8702L600.817 85.0949C600.401 84.6792 599.727 84.6792 599.311 85.0949C598.895 85.5107 598.895 86.1848 599.311 86.6006L605.334 92.623L599.311 98.6455C598.895 99.0613 598.895 99.7354 599.311 100.151C599.727 100.567 600.401 100.567 600.817 100.151L607.592 93.3759ZM472.695 92.623V93.6877H474.791V92.623V91.5584H472.695V92.623ZM478.983 92.623V93.6877H483.175V92.623V91.5584H478.983V92.623ZM487.367 92.623V93.6877H491.559V92.623V91.5584H487.367V92.623ZM495.751 92.623V93.6877H499.943V92.623V91.5584H495.751V92.623ZM504.135 92.623V93.6877H508.327V92.623V91.5584H504.135V92.623ZM512.519 92.623V93.6877H516.711V92.623V91.5584H512.519V92.623ZM520.903 92.623V93.6877H525.095V92.623V91.5584H520.903V92.623ZM529.287 92.623V93.6877H533.479V92.623V91.5584H529.287V92.623ZM537.671 92.623V93.6877H541.863V92.623V91.5584H537.671V92.623ZM546.055 92.623V93.6877H550.247V92.623V91.5584H546.055V92.623ZM554.439 92.623V93.6877H558.631V92.623V91.5584H554.439V92.623ZM562.823 92.623V93.6877H567.015V92.623V91.5584H562.823V92.623ZM571.207 92.623V93.6877H575.399V92.623V91.5584H571.207V92.623ZM579.591 92.623V93.6877H583.783V92.623V91.5584H579.591V92.623ZM587.975 92.623V93.6877H592.167V92.623V91.5584H587.975V92.623ZM596.359 92.623V93.6877H600.551V92.623V91.5584H596.359V92.623ZM604.743 92.623V93.6877H606.839V92.623V91.5584H604.743V92.623Z" fill="black"/>
<path d="M646.232 125.916V116.625H649.48C650.128 116.625 650.662 116.737 651.082 116.96C651.502 117.181 651.815 117.479 652.021 117.854C652.227 118.226 652.33 118.639 652.33 119.093C652.33 119.492 652.258 119.822 652.116 120.082C651.977 120.342 651.793 120.547 651.563 120.699C651.336 120.85 651.09 120.962 650.823 121.034V121.125C651.108 121.143 651.393 121.243 651.681 121.425C651.968 121.606 652.209 121.866 652.402 122.205C652.596 122.544 652.693 122.958 652.693 123.448C652.693 123.914 652.587 124.333 652.375 124.705C652.163 125.077 651.829 125.372 651.372 125.589C650.916 125.807 650.321 125.916 649.589 125.916H646.232ZM647.357 124.918H649.589C650.324 124.918 650.846 124.776 651.155 124.491C651.466 124.204 651.622 123.856 651.622 123.448C651.622 123.133 651.542 122.843 651.381 122.577C651.221 122.308 650.993 122.093 650.696 121.933C650.4 121.769 650.049 121.688 649.644 121.688H647.357V124.918ZM647.357 120.708H649.444C649.783 120.708 650.088 120.641 650.361 120.508C650.636 120.375 650.854 120.188 651.014 119.946C651.177 119.704 651.259 119.419 651.259 119.093C651.259 118.684 651.117 118.338 650.832 118.054C650.548 117.766 650.097 117.623 649.48 117.623H647.357V120.708ZM656.447 126.079C656.005 126.079 655.604 125.996 655.244 125.83C654.885 125.66 654.599 125.417 654.387 125.099C654.175 124.779 654.069 124.392 654.069 123.938C654.069 123.539 654.148 123.215 654.305 122.967C654.463 122.716 654.673 122.519 654.936 122.377C655.199 122.235 655.489 122.129 655.807 122.06C656.128 121.987 656.45 121.93 656.773 121.887C657.197 121.833 657.54 121.792 657.803 121.765C658.069 121.735 658.263 121.685 658.384 121.615C658.508 121.546 658.57 121.425 658.57 121.252V121.216C658.57 120.768 658.447 120.42 658.202 120.172C657.96 119.924 657.593 119.8 657.1 119.8C656.589 119.8 656.188 119.912 655.898 120.136C655.607 120.36 655.403 120.599 655.285 120.853L654.269 120.49C654.451 120.067 654.692 119.737 654.995 119.501C655.3 119.262 655.633 119.096 655.993 119.002C656.356 118.905 656.713 118.857 657.064 118.857C657.288 118.857 657.545 118.884 657.835 118.938C658.128 118.99 658.411 119.097 658.683 119.261C658.959 119.424 659.187 119.67 659.368 120C659.55 120.33 659.641 120.771 659.641 121.325V125.916H658.57V124.972H658.515C658.443 125.124 658.322 125.285 658.153 125.458C657.983 125.63 657.758 125.777 657.477 125.898C657.195 126.019 656.852 126.079 656.447 126.079ZM656.61 125.118C657.033 125.118 657.39 125.034 657.681 124.868C657.974 124.702 658.195 124.487 658.343 124.224C658.494 123.961 658.57 123.684 658.57 123.394V122.414C658.525 122.468 658.425 122.518 658.27 122.563C658.119 122.606 657.944 122.643 657.744 122.677C657.548 122.707 657.356 122.734 657.168 122.758C656.984 122.78 656.834 122.798 656.719 122.813C656.441 122.849 656.181 122.908 655.939 122.99C655.7 123.068 655.506 123.188 655.358 123.348C655.213 123.505 655.14 123.72 655.14 123.992C655.14 124.364 655.278 124.646 655.553 124.836C655.831 125.024 656.184 125.118 656.61 125.118ZM662.666 121.724V125.916H661.595V118.947H662.629V120.036H662.72C662.883 119.682 663.131 119.398 663.464 119.183C663.797 118.966 664.226 118.857 664.752 118.857C665.224 118.857 665.637 118.954 665.991 119.147C666.345 119.338 666.62 119.628 666.817 120.018C667.013 120.405 667.112 120.895 667.112 121.488V125.916H666.041V121.561C666.041 121.013 665.899 120.587 665.614 120.281C665.33 119.973 664.94 119.819 664.444 119.819C664.102 119.819 663.797 119.893 663.528 120.041C663.261 120.189 663.051 120.405 662.897 120.69C662.743 120.974 662.666 121.319 662.666 121.724ZM670.066 123.375L670.048 122.051H670.266L673.315 118.947H674.639L671.391 122.232H671.3L670.066 123.375ZM669.068 125.916V116.625H670.139V125.916H669.068ZM673.496 125.916L670.774 122.468L671.536 121.724L674.857 125.916H673.496Z" fill="black"/>
<path d="M658.473 148.473V182.63" stroke="black" stroke-width="2.12927" stroke-linecap="round" stroke-linejoin="round"/>
<path d="M666.239 154.683H654.594C653.153 154.683 651.771 155.255 650.752 156.274C649.733 157.293 649.16 158.675 649.16 160.117C649.16 161.558 649.733 162.94 650.752 163.959C651.771 164.978 653.153 165.551 654.594 165.551H662.357C663.798 165.551 665.181 166.123 666.2 167.142C667.219 168.161 667.791 169.544 667.791 170.985C667.791 172.426 667.219 173.808 666.2 174.827C665.181 175.846 663.798 176.419 662.357 176.419H649.16" stroke="black" stroke-width="2.12927" stroke-linecap="round" stroke-linejoin="round"/>
<path d="M607.592 166.836C608.008 166.42 608.008 165.746 607.592 165.33L600.817 158.555C600.401 158.139 599.727 158.139 599.311 158.555C598.895 158.971 598.895 159.645 599.311 160.061L605.334 166.083L599.311 172.105C598.895 172.521 598.895 173.195 599.311 173.611C599.727 174.027 600.401 174.027 600.817 173.611L607.592 166.836ZM472.695 166.083V167.148H606.839V166.083V165.018H472.695V166.083Z" fill="black"/>
<path d="M527.075 157.855H525.896L529.308 148.564H530.469L533.881 157.855H532.701L529.925 150.034H529.852L527.075 157.855ZM527.511 154.226H532.266V155.224H527.511V154.226ZM539.574 155.006V150.887H540.645V157.855H539.574V156.676H539.502C539.338 157.03 539.084 157.331 538.74 157.579C538.395 157.824 537.959 157.946 537.433 157.946C536.997 157.946 536.61 157.851 536.272 157.66C535.933 157.467 535.667 157.176 535.473 156.789C535.279 156.399 535.183 155.908 535.183 155.315V150.887H536.253V155.242C536.253 155.75 536.396 156.156 536.68 156.458C536.967 156.761 537.333 156.912 537.778 156.912C538.044 156.912 538.315 156.844 538.59 156.708C538.868 156.572 539.101 156.363 539.288 156.082C539.479 155.8 539.574 155.442 539.574 155.006ZM545.637 150.887V151.794H542.025V150.887H545.637ZM543.078 149.217H544.149V155.859C544.149 156.162 544.192 156.389 544.28 156.54C544.371 156.688 544.486 156.788 544.625 156.839C544.767 156.888 544.917 156.912 545.074 156.912C545.192 156.912 545.289 156.906 545.364 156.894C545.44 156.879 545.5 156.866 545.546 156.857L545.764 157.819C545.691 157.846 545.59 157.874 545.46 157.901C545.33 157.931 545.165 157.946 544.965 157.946C544.663 157.946 544.366 157.881 544.076 157.751C543.789 157.621 543.55 157.423 543.359 157.157C543.172 156.891 543.078 156.555 543.078 156.15V149.217ZM548.468 153.663V157.855H547.397V148.564H548.468V151.976H548.558C548.722 151.616 548.967 151.33 549.293 151.118C549.623 150.904 550.061 150.796 550.609 150.796C551.084 150.796 551.5 150.891 551.857 151.082C552.213 151.27 552.49 151.558 552.687 151.949C552.886 152.336 552.986 152.829 552.986 153.428V157.855H551.916V153.5C551.916 152.947 551.772 152.519 551.485 152.216C551.2 151.911 550.806 151.758 550.3 151.758C549.95 151.758 549.635 151.832 549.357 151.98C549.082 152.129 548.864 152.345 548.703 152.629C548.546 152.913 548.468 153.258 548.468 153.663Z" fill="black"/>
<path d="M527.536 82H526.357L529.768 72.7086H530.93L534.342 82H533.162L530.385 74.1786H530.313L527.536 82ZM527.972 78.3706H532.726V79.3687H527.972V78.3706ZM540.035 79.1509V75.0315H541.106V82H540.035V80.8204H539.963C539.799 81.1743 539.545 81.4752 539.2 81.7233C538.856 81.9682 538.42 82.0907 537.894 82.0907C537.458 82.0907 537.071 81.9955 536.732 81.8049C536.394 81.6113 536.128 81.321 535.934 80.9339C535.74 80.5437 535.644 80.0522 535.644 79.4594V75.0315H536.714V79.3868C536.714 79.8949 536.856 80.3002 537.141 80.6027C537.428 80.9051 537.794 81.0563 538.239 81.0563C538.505 81.0563 538.776 80.9883 539.051 80.8522C539.329 80.7161 539.562 80.5074 539.749 80.2261C539.94 79.9448 540.035 79.5864 540.035 79.1509ZM546.098 75.0315V75.9388H542.486V75.0315H546.098ZM543.539 73.3619H544.609V80.0038C544.609 80.3063 544.653 80.5331 544.741 80.6843C544.832 80.8325 544.947 80.9323 545.086 80.9838C545.228 81.0322 545.378 81.0563 545.535 81.0563C545.653 81.0563 545.75 81.0503 545.825 81.0382C545.901 81.0231 545.961 81.011 546.007 81.0019L546.225 81.9637C546.152 81.9909 546.051 82.0181 545.921 82.0454C545.791 82.0756 545.626 82.0907 545.426 82.0907C545.124 82.0907 544.827 82.0257 544.537 81.8957C544.25 81.7656 544.011 81.5675 543.82 81.3013C543.633 81.0352 543.539 80.6995 543.539 80.2942V73.3619ZM548.928 77.808V82H547.858V72.7086H548.928V76.1203H549.019C549.183 75.7604 549.428 75.4746 549.754 75.2629C550.084 75.0481 550.522 74.9407 551.07 74.9407C551.545 74.9407 551.961 75.036 552.317 75.2266C552.674 75.4141 552.951 75.7029 553.148 76.0931C553.347 76.4802 553.447 76.9732 553.447 77.5721V82H552.376V77.6447C552.376 77.0912 552.233 76.6632 551.945 76.3608C551.661 76.0553 551.266 75.9025 550.761 75.9025C550.411 75.9025 550.096 75.9766 549.818 76.1248C549.542 76.2731 549.325 76.4893 549.164 76.7736C549.007 77.0579 548.928 77.4027 548.928 77.808Z" fill="black"/>
<path d="M646.232 199.376V190.085H649.48C650.128 190.085 650.662 190.197 651.082 190.42C651.502 190.641 651.815 190.939 652.021 191.314C652.227 191.686 652.33 192.099 652.33 192.553C652.33 192.952 652.258 193.282 652.116 193.542C651.977 193.802 651.793 194.007 651.563 194.159C651.336 194.31 651.09 194.422 650.823 194.494V194.585C651.108 194.603 651.393 194.703 651.681 194.885C651.968 195.066 652.209 195.326 652.402 195.665C652.596 196.004 652.693 196.418 652.693 196.908C652.693 197.374 652.587 197.793 652.375 198.165C652.163 198.537 651.829 198.832 651.372 199.049C650.916 199.267 650.321 199.376 649.589 199.376H646.232ZM647.357 198.378H649.589C650.324 198.378 650.846 198.236 651.155 197.951C651.466 197.664 651.622 197.316 651.622 196.908C651.622 196.593 651.542 196.303 651.381 196.037C651.221 195.768 650.993 195.553 650.696 195.393C650.4 195.229 650.049 195.148 649.644 195.148H647.357V198.378ZM647.357 194.168H649.444C649.783 194.168 650.088 194.101 650.361 193.968C650.636 193.835 650.854 193.648 651.014 193.406C651.177 193.164 651.259 192.879 651.259 192.553C651.259 192.144 651.117 191.798 650.832 191.514C650.548 191.226 650.097 191.083 649.48 191.083H647.357V194.168ZM656.447 199.539C656.005 199.539 655.604 199.456 655.244 199.29C654.885 199.12 654.599 198.877 654.387 198.559C654.175 198.239 654.069 197.852 654.069 197.398C654.069 196.999 654.148 196.675 654.305 196.427C654.463 196.176 654.673 195.979 654.936 195.837C655.199 195.695 655.489 195.589 655.807 195.52C656.128 195.447 656.45 195.39 656.773 195.347C657.197 195.293 657.54 195.252 657.803 195.225C658.069 195.195 658.263 195.145 658.384 195.075C658.508 195.006 658.57 194.885 658.57 194.712V194.676C658.57 194.228 658.447 193.88 658.202 193.632C657.96 193.384 657.593 193.26 657.1 193.26C656.589 193.26 656.188 193.372 655.898 193.596C655.607 193.82 655.403 194.059 655.285 194.313L654.269 193.95C654.451 193.527 654.692 193.197 654.995 192.961C655.3 192.722 655.633 192.556 655.993 192.462C656.356 192.365 656.713 192.317 657.064 192.317C657.288 192.317 657.545 192.344 657.835 192.398C658.128 192.45 658.411 192.557 658.683 192.72C658.959 192.884 659.187 193.13 659.368 193.46C659.55 193.79 659.641 194.231 659.641 194.785V199.376H658.57V198.432H658.515C658.443 198.584 658.322 198.745 658.153 198.918C657.983 199.09 657.758 199.237 657.477 199.358C657.195 199.479 656.852 199.539 656.447 199.539ZM656.61 198.578C657.033 198.578 657.39 198.494 657.681 198.328C657.974 198.162 658.195 197.947 658.343 197.684C658.494 197.421 658.57 197.144 658.57 196.854V195.874C658.525 195.928 658.425 195.978 658.27 196.023C658.119 196.066 657.944 196.103 657.744 196.137C657.548 196.167 657.356 196.194 657.168 196.218C656.984 196.24 656.834 196.258 656.719 196.273C656.441 196.309 656.181 196.368 655.939 196.45C655.7 196.528 655.506 196.648 655.358 196.808C655.213 196.965 655.14 197.18 655.14 197.452C655.14 197.824 655.278 198.106 655.553 198.296C655.831 198.484 656.184 198.578 656.61 198.578ZM662.666 195.184V199.376H661.595V192.407H662.629V193.496H662.72C662.883 193.142 663.131 192.858 663.464 192.643C663.797 192.426 664.226 192.317 664.752 192.317C665.224 192.317 665.637 192.414 665.991 192.607C666.345 192.798 666.62 193.088 666.817 193.478C667.013 193.865 667.112 194.355 667.112 194.948V199.376H666.041V195.021C666.041 194.473 665.899 194.047 665.614 193.741C665.33 193.433 664.94 193.279 664.444 193.279C664.102 193.279 663.797 193.353 663.528 193.501C663.261 193.649 663.051 193.865 662.897 194.15C662.743 194.434 662.666 194.779 662.666 195.184ZM670.066 196.835L670.048 195.511H670.266L673.315 192.407H674.639L671.391 195.692H671.3L670.066 196.835ZM669.068 199.376V190.085H670.139V199.376H669.068ZM673.496 199.376L670.774 195.928L671.536 195.184L674.857 199.376H673.496Z" fill="black"/>
<path d="M415.5 260.265H414.435V261.329H415.5V260.265ZM733 260.265V261.329H734.064V260.265H733ZM733 168H734.064V166.935H733V168ZM416.253 215.747C415.837 215.331 415.163 215.331 414.747 215.747L407.972 222.522C407.556 222.938 407.556 223.612 407.972 224.028C408.388 224.444 409.062 224.444 409.478 224.028L415.5 218.006L421.522 224.028C421.938 224.444 422.612 224.444 423.028 224.028C423.444 223.612 423.444 222.938 423.028 222.522L416.253 215.747ZM733 168H731.935V260.265H733H734.064V168H733ZM693.5 168V169.065H733V168V166.935H693.5V168ZM415.5 216.5H414.435V260.265H415.5H416.565V216.5H415.5ZM415.5 260.265V261.329H733V260.265V259.2H415.5V260.265Z" fill="black"/>
<g clip-path="url(#clip1_238_433)">
<path d="M13.9745 38.4157C14.8319 38.4157 15.5271 37.7206 15.5271 36.8631C15.5271 36.0057 14.8319 35.3105 13.9745 35.3105C13.117 35.3105 12.4219 36.0057 12.4219 36.8631C12.4219 37.7206 13.117 38.4157 13.9745 38.4157Z" stroke="black" stroke-width="2.12927" stroke-linecap="round" stroke-linejoin="round"/>
<path d="M31.0526 38.4157C31.9101 38.4157 32.6052 37.7206 32.6052 36.8631C32.6052 36.0057 31.9101 35.3105 31.0526 35.3105C30.1951 35.3105 29.5 36.0057 29.5 36.8631C29.5 37.7206 30.1951 38.4157 31.0526 38.4157Z" stroke="black" stroke-width="2.12927" stroke-linecap="round" stroke-linejoin="round"/>
<path d="M1.55469 5.81152H7.76506L11.926 26.6007C12.068 27.3155 12.4568 27.9576 13.0245 28.4146C13.5922 28.8716 14.3026 29.1144 15.0312 29.1004H30.1224C30.851 29.1144 31.5614 28.8716 32.129 28.4146C32.6967 27.9576 33.0856 27.3155 33.2276 26.6007L35.7117 13.5745H9.31765" stroke="black" stroke-width="2.12927" stroke-linecap="round" stroke-linejoin="round"/>
</g>
<g clip-path="url(#clip2_238_433)">
<path d="M418.404 23.2892C420.903 23.2892 422.928 21.2038 422.928 18.6314C422.928 16.059 420.903 13.9736 418.404 13.9736C415.905 13.9736 413.879 16.059 413.879 18.6314C413.879 21.2038 415.905 23.2892 418.404 23.2892Z" stroke="black" stroke-width="2.12927" stroke-linecap="round" stroke-linejoin="round"/>
<path d="M429.564 23.289C429.363 23.7573 429.303 24.2768 429.392 24.7804C429.481 25.2841 429.714 25.7488 430.062 26.1147L430.152 26.2079C430.433 26.4963 430.655 26.8388 430.807 27.2157C430.959 27.5927 431.037 27.9967 431.037 28.4048C431.037 28.8129 430.959 29.217 430.807 29.5939C430.655 29.9709 430.433 30.3133 430.152 30.6017C429.872 30.8904 429.539 31.1195 429.173 31.2757C428.807 31.432 428.414 31.5124 428.018 31.5124C427.622 31.5124 427.229 31.432 426.863 31.2757C426.497 31.1195 426.164 30.8904 425.884 30.6017L425.793 30.5086C425.438 30.1506 424.986 29.9105 424.497 29.8192C424.008 29.7279 423.503 29.7895 423.048 29.9962C422.602 30.193 422.222 30.5198 421.954 30.9364C421.686 31.3529 421.542 31.841 421.54 32.3406V32.6046C421.54 33.4281 421.222 34.2179 420.657 34.8003C420.091 35.3826 419.324 35.7098 418.524 35.7098C417.724 35.7098 416.956 35.3826 416.391 34.8003C415.825 34.2179 415.507 33.4281 415.507 32.6046V32.4648C415.496 31.9509 415.334 31.4525 415.043 31.0344C414.753 30.6163 414.347 30.2979 413.878 30.1204C413.423 29.9138 412.919 29.8521 412.43 29.9434C411.94 30.0347 411.489 30.2749 411.133 30.6328L411.043 30.7259C410.763 31.0147 410.43 31.2437 410.064 31.4C409.698 31.5562 409.305 31.6367 408.909 31.6367C408.512 31.6367 408.12 31.5562 407.754 31.4C407.387 31.2437 407.055 31.0147 406.775 30.7259C406.494 30.4376 406.272 30.0951 406.12 29.7181C405.968 29.3412 405.89 28.9371 405.89 28.529C405.89 28.121 405.968 27.7169 406.12 27.3399C406.272 26.963 406.494 26.6205 406.775 26.3321L406.865 26.2389C407.213 25.873 407.446 25.4083 407.535 24.9046C407.623 24.401 407.564 23.8815 407.363 23.4132C407.172 22.954 406.854 22.5624 406.45 22.2865C406.045 22.0107 405.571 21.8626 405.085 21.8606H404.829C404.029 21.8606 403.262 21.5335 402.696 20.9512C402.13 20.3688 401.812 19.579 401.812 18.7555C401.812 17.9319 402.13 17.1421 402.696 16.5598C403.262 15.9774 404.029 15.6503 404.829 15.6503H404.965C405.464 15.6383 405.948 15.4719 406.354 15.1729C406.76 14.8738 407.07 14.4559 407.242 13.9735C407.443 13.5052 407.503 12.9857 407.414 12.4821C407.325 11.9784 407.092 11.5137 406.744 11.1478L406.654 11.0546C406.373 10.7662 406.151 10.4237 405.999 10.0468C405.847 9.66982 405.769 9.26575 405.769 8.85768C405.769 8.44961 405.847 8.04554 405.999 7.66858C406.151 7.29162 406.373 6.94915 406.654 6.66076C406.934 6.37205 407.267 6.14302 407.633 5.98675C407.999 5.83049 408.392 5.75005 408.788 5.75005C409.184 5.75005 409.577 5.83049 409.943 5.98675C410.309 6.14302 410.642 6.37205 410.922 6.66076L411.013 6.75392C411.368 7.11185 411.82 7.35195 412.309 7.44328C412.798 7.5346 413.303 7.47295 413.758 7.26627H413.878C414.324 7.06946 414.705 6.74267 414.973 6.32613C415.241 5.90958 415.385 5.42146 415.387 4.92186V4.65792C415.387 3.83437 415.704 3.04456 416.27 2.46222C416.836 1.87989 417.603 1.55273 418.403 1.55273C419.203 1.55273 419.97 1.87989 420.536 2.46222C421.102 3.04456 421.42 3.83437 421.42 4.65792V4.79765C421.421 5.29726 421.565 5.78537 421.833 6.20192C422.101 6.61846 422.482 6.94525 422.928 7.14207C423.383 7.34874 423.887 7.41039 424.377 7.31907C424.866 7.22775 425.317 6.98764 425.673 6.62971L425.763 6.53656C426.043 6.24785 426.376 6.01881 426.742 5.86254C427.108 5.70628 427.501 5.62585 427.897 5.62585C428.294 5.62585 428.686 5.70628 429.053 5.86254C429.419 6.01881 429.751 6.24785 430.032 6.53656C430.312 6.82494 430.534 7.16741 430.686 7.54437C430.838 7.92134 430.916 8.3254 430.916 8.73347C430.916 9.14154 430.838 9.54561 430.686 9.92257C430.534 10.2995 430.312 10.642 430.032 10.9304L429.941 11.0235C429.593 11.3895 429.36 11.8542 429.271 12.3579C429.183 12.8615 429.243 13.381 429.443 13.8493V13.9735C429.635 14.4327 429.952 14.8243 430.357 15.1002C430.761 15.376 431.235 15.5241 431.721 15.5261H431.977C432.777 15.5261 433.544 15.8532 434.11 16.4356C434.676 17.0179 434.994 17.8077 434.994 18.6312C434.994 19.4548 434.676 20.2446 434.11 20.8269C433.544 21.4093 432.777 21.7364 431.977 21.7364H431.841C431.356 21.7384 430.882 21.8865 430.477 22.1623C430.073 22.4382 429.755 22.8298 429.564 23.289Z" stroke="black" stroke-width="2.12927" stroke-linecap="round" stroke-linejoin="round"/>
</g>
<path d="M363.795 20.9813C364.211 20.5656 364.211 19.8915 363.795 19.4757L357.02 12.7004C356.604 12.2846 355.93 12.2846 355.514 12.7004C355.099 13.1162 355.099 13.7903 355.514 14.206L361.537 20.2285L355.514 26.251C355.099 26.6668 355.099 27.3409 355.514 27.7566C355.93 28.1724 356.604 28.1724 357.02 27.7566L363.795 20.9813ZM228.898 20.2285V21.2932H230.994V20.2285V19.1639H228.898V20.2285ZM235.186 20.2285V21.2932H239.378V20.2285V19.1639H235.186V20.2285ZM243.57 20.2285V21.2932H247.762V20.2285V19.1639H243.57V20.2285ZM251.954 20.2285V21.2932H256.146V20.2285V19.1639H251.954V20.2285ZM260.338 20.2285V21.2932H264.53V20.2285V19.1639H260.338V20.2285ZM268.722 20.2285V21.2932H272.914V20.2285V19.1639H268.722V20.2285ZM277.106 20.2285V21.2932H281.298V20.2285V19.1639H277.106V20.2285ZM285.49 20.2285V21.2932H289.682V20.2285V19.1639H285.49V20.2285ZM293.874 20.2285V21.2932H298.066V20.2285V19.1639H293.874V20.2285ZM302.258 20.2285V21.2932H306.45V20.2285V19.1639H302.258V20.2285ZM310.642 20.2285V21.2932H314.834V20.2285V19.1639H310.642V20.2285ZM319.026 20.2285V21.2932H323.218V20.2285V19.1639H319.026V20.2285ZM327.41 20.2285V21.2932H331.602V20.2285V19.1639H327.41V20.2285ZM335.794 20.2285V21.2932H339.986V20.2285V19.1639H335.794V20.2285ZM344.178 20.2285V21.2932H348.37V20.2285V19.1639H344.178V20.2285ZM352.562 20.2285V21.2932H356.754V20.2285V19.1639H352.562V20.2285ZM360.946 20.2285V21.2932H363.042V20.2285V19.1639H360.946V20.2285Z" fill="black"/>
<path d="M274.061 12V2.70864H277.2C277.926 2.70864 278.522 2.83265 278.988 3.08066C279.454 3.32565 279.799 3.66288 280.022 4.09237C280.246 4.52185 280.358 5.01031 280.358 5.55775C280.358 6.10519 280.246 6.59063 280.022 7.01406C279.799 7.4375 279.455 7.77019 278.992 8.01216C278.53 8.25109 277.938 8.37056 277.219 8.37056H274.678V7.35432H277.182C277.678 7.35432 278.078 7.28173 278.38 7.13656C278.686 6.99138 278.906 6.78571 279.042 6.51955C279.182 6.25037 279.251 5.92977 279.251 5.55775C279.251 5.18573 279.182 4.8606 279.042 4.58234C278.903 4.30408 278.681 4.08934 278.375 3.93811C278.07 3.78386 277.666 3.70674 277.164 3.70674H275.186V12H274.061ZM278.434 7.82615L280.721 12H279.414L277.164 7.82615H278.434ZM284.844 12.1452C284.215 12.1452 283.663 11.9955 283.188 11.696C282.716 11.3966 282.347 10.9777 282.081 10.4393C281.818 9.90098 281.686 9.27187 281.686 8.55204C281.686 7.82615 281.818 7.19251 282.081 6.65112C282.347 6.10973 282.716 5.68932 283.188 5.38989C283.663 5.09046 284.215 4.94075 284.844 4.94075C285.473 4.94075 286.023 5.09046 286.495 5.38989C286.97 5.68932 287.339 6.10973 287.602 6.65112C287.868 7.19251 288.001 7.82615 288.001 8.55204C288.001 9.27187 287.868 9.90098 287.602 10.4393C287.339 10.9777 286.97 11.3966 286.495 11.696C286.023 11.9955 285.473 12.1452 284.844 12.1452ZM284.844 11.1834C285.322 11.1834 285.715 11.0609 286.023 10.8159C286.332 10.5709 286.56 10.2488 286.708 9.84956C286.857 9.45032 286.931 9.01781 286.931 8.55204C286.931 8.08626 286.857 7.65224 286.708 7.24997C286.56 6.84771 286.332 6.52258 286.023 6.27456C285.715 6.02655 285.322 5.90255 284.844 5.90255C284.366 5.90255 283.973 6.02655 283.664 6.27456C283.356 6.52258 283.127 6.84771 282.979 7.24997C282.831 7.65224 282.757 8.08626 282.757 8.55204C282.757 9.01781 282.831 9.45032 282.979 9.84956C283.127 10.2488 283.356 10.5709 283.664 10.8159C283.973 11.0609 284.366 11.1834 284.844 11.1834ZM294.027 9.15089V5.03148H295.098V12H294.027V10.8204H293.955C293.792 11.1743 293.537 11.4752 293.193 11.7233C292.848 11.9682 292.412 12.0907 291.886 12.0907C291.451 12.0907 291.063 11.9955 290.725 11.8049C290.386 11.6113 290.12 11.321 289.926 10.9339C289.733 10.5437 289.636 10.0522 289.636 9.45939V5.03148H290.707V9.38681C290.707 9.89493 290.849 10.3002 291.133 10.6027C291.42 10.9051 291.786 11.0563 292.231 11.0563C292.497 11.0563 292.768 10.9883 293.043 10.8522C293.321 10.7161 293.554 10.5074 293.742 10.2261C293.932 9.94483 294.027 9.58642 294.027 9.15089ZM300.09 5.03148V5.93884H296.478V5.03148H300.09ZM297.531 3.36194H298.602V10.0038C298.602 10.3063 298.646 10.5331 298.733 10.6843C298.824 10.8325 298.939 10.9323 299.078 10.9838C299.22 11.0322 299.37 11.0563 299.527 11.0563C299.645 11.0563 299.742 11.0503 299.818 11.0382C299.893 11.0231 299.954 11.011 299.999 11.0019L300.217 11.9637C300.144 11.9909 300.043 12.0181 299.913 12.0454C299.783 12.0756 299.618 12.0907 299.418 12.0907C299.116 12.0907 298.819 12.0257 298.529 11.8957C298.242 11.7656 298.003 11.5675 297.812 11.3013C297.625 11.0352 297.531 10.6995 297.531 10.2942V3.36194ZM301.7 12V5.03148H302.771V12H301.7ZM302.245 3.87006C302.036 3.87006 301.856 3.79899 301.705 3.65683C301.557 3.51468 301.483 3.34379 301.483 3.14418C301.483 2.94456 301.557 2.77367 301.705 2.63152C301.856 2.48936 302.036 2.41829 302.245 2.41829C302.453 2.41829 302.632 2.48936 302.78 2.63152C302.931 2.77367 303.007 2.94456 303.007 3.14418C303.007 3.34379 302.931 3.51468 302.78 3.65683C302.632 3.79899 302.453 3.87006 302.245 3.87006ZM305.803 7.808V12H304.732V5.03148H305.766V6.12031H305.857C306.02 5.76644 306.268 5.48214 306.601 5.2674C306.934 5.04963 307.363 4.94075 307.89 4.94075C308.361 4.94075 308.774 5.03753 309.128 5.2311C309.482 5.42165 309.757 5.712 309.954 6.10217C310.15 6.48931 310.249 6.97928 310.249 7.57209V12H309.178V7.64468C309.178 7.09724 309.036 6.67078 308.752 6.3653C308.467 6.0568 308.077 5.90255 307.581 5.90255C307.239 5.90255 306.934 5.97665 306.665 6.12485C306.399 6.27305 306.188 6.48931 306.034 6.77361C305.88 7.05792 305.803 7.40271 305.803 7.808ZM315.018 14.7584C314.501 14.7584 314.056 14.6918 313.684 14.5588C313.312 14.4287 313.002 14.2563 312.754 14.0416C312.509 13.8298 312.314 13.603 312.169 13.361L313.022 12.7622C313.119 12.8892 313.241 13.0344 313.389 13.1977C313.538 13.3641 313.74 13.5077 313.997 13.6287C314.257 13.7527 314.598 13.8147 315.018 13.8147C315.581 13.8147 316.045 13.6786 316.411 13.4064C316.777 13.1342 316.96 12.7077 316.96 12.127V10.7116H316.869C316.79 10.8386 316.679 10.9959 316.533 11.1834C316.391 11.3679 316.186 11.5327 315.916 11.6779C315.65 11.82 315.29 11.8911 314.837 11.8911C314.274 11.8911 313.769 11.758 313.321 11.4919C312.877 11.2257 312.524 10.8386 312.264 10.3305C312.007 9.82234 311.879 9.20533 311.879 8.47945C311.879 7.76566 312.004 7.14412 312.255 6.61482C312.506 6.08251 312.856 5.67117 313.303 5.38082C313.751 5.08744 314.268 4.94075 314.855 4.94075C315.308 4.94075 315.668 5.01636 315.934 5.16759C316.204 5.31579 316.409 5.48516 316.551 5.67571C316.697 5.86323 316.809 6.01748 316.887 6.13846H316.996V5.03148H318.03V12.1996C318.03 12.7985 317.894 13.2854 317.622 13.6605C317.353 14.0385 316.99 14.3153 316.533 14.4907C316.08 14.6691 315.575 14.7584 315.018 14.7584ZM314.982 10.9293C315.411 10.9293 315.774 10.831 316.071 10.6344C316.367 10.4378 316.592 10.155 316.747 9.78604C316.901 9.41705 316.978 8.97547 316.978 8.4613C316.978 7.95923 316.902 7.51613 316.751 7.13202C316.6 6.7479 316.376 6.44696 316.08 6.2292C315.783 6.01143 315.417 5.90255 314.982 5.90255C314.528 5.90255 314.15 6.01748 313.848 6.24734C313.548 6.47721 313.323 6.78571 313.172 7.17285C313.023 7.55999 312.949 7.98947 312.949 8.4613C312.949 8.94522 313.025 9.3732 313.176 9.74521C313.33 10.1142 313.557 10.4046 313.857 10.6163C314.159 10.825 314.534 10.9293 314.982 10.9293Z" fill="black"/>
<path d="M407.346 52.4561V43.1647H410.486C411.215 43.1647 411.811 43.2963 412.273 43.5594C412.739 43.8195 413.084 44.1719 413.308 44.6165C413.531 45.0611 413.643 45.5571 413.643 46.1045C413.643 46.652 413.531 47.1495 413.308 47.5971C413.087 48.0448 412.745 48.4017 412.282 48.6678C411.82 48.931 411.227 49.0625 410.504 49.0625H408.254V48.0644H410.468C410.967 48.0644 411.367 47.9782 411.67 47.8058C411.972 47.6334 412.192 47.4006 412.328 47.1072C412.467 46.8108 412.536 46.4766 412.536 46.1045C412.536 45.7325 412.467 45.3998 412.328 45.1064C412.192 44.8131 411.971 44.5832 411.665 44.4169C411.36 44.2475 410.955 44.1628 410.449 44.1628H408.471V52.4561H407.346ZM420.537 45.4875C420.483 45.0278 420.262 44.6709 419.875 44.4169C419.488 44.1628 419.013 44.0358 418.45 44.0358C418.039 44.0358 417.679 44.1023 417.37 44.2354C417.065 44.3685 416.826 44.5514 416.654 44.7843C416.484 45.0172 416.4 45.2819 416.4 45.5783C416.4 45.8263 416.458 46.0395 416.576 46.218C416.697 46.3934 416.852 46.5401 417.039 46.658C417.227 46.773 417.423 46.8682 417.629 46.9438C417.835 47.0164 418.024 47.0754 418.196 47.1208L419.14 47.3748C419.382 47.4384 419.651 47.5261 419.947 47.638C420.247 47.7499 420.533 47.9026 420.805 48.0962C421.08 48.2867 421.307 48.5317 421.485 48.8312C421.664 49.1306 421.753 49.4981 421.753 49.9336C421.753 50.4357 421.621 50.8893 421.358 51.2946C421.098 51.6999 420.717 52.022 420.215 52.261C419.716 52.4999 419.109 52.6194 418.396 52.6194C417.73 52.6194 417.154 52.512 416.667 52.2973C416.183 52.0825 415.802 51.7831 415.524 51.399C415.249 51.0149 415.093 50.5687 415.057 50.0606H416.218C416.248 50.4115 416.366 50.7018 416.572 50.9317C416.781 51.1585 417.044 51.3279 417.361 51.4398C417.682 51.5487 418.027 51.6031 418.396 51.6031C418.825 51.6031 419.211 51.5336 419.553 51.3944C419.894 51.2523 420.165 51.0557 420.365 50.8047C420.564 50.5506 420.664 50.2542 420.664 49.9154C420.664 49.6069 420.578 49.3559 420.405 49.1623C420.233 48.9688 420.006 48.8115 419.725 48.6905C419.444 48.5695 419.14 48.4637 418.813 48.3729L417.67 48.0463C416.944 47.8376 416.369 47.5397 415.946 47.1525C415.522 46.7654 415.311 46.2588 415.311 45.6327C415.311 45.1125 415.451 44.6588 415.733 44.2717C416.017 43.8815 416.398 43.5791 416.876 43.3643C417.357 43.1466 417.894 43.0377 418.486 43.0377C419.085 43.0377 419.618 43.145 420.083 43.3598C420.549 43.5715 420.918 43.8619 421.19 44.2308C421.466 44.5998 421.611 45.0187 421.626 45.4875H420.537ZM423.603 52.4561V43.1647H426.742C427.471 43.1647 428.067 43.2963 428.53 43.5594C428.996 43.8195 429.34 44.1719 429.564 44.6165C429.788 45.0611 429.9 45.5571 429.9 46.1045C429.9 46.652 429.788 47.1495 429.564 47.5971C429.343 48.0448 429.002 48.4017 428.539 48.6678C428.076 48.931 427.483 49.0625 426.76 49.0625H424.51V48.0644H426.724C427.223 48.0644 427.624 47.9782 427.926 47.8058C428.229 47.6334 428.448 47.4006 428.584 47.1072C428.723 46.8108 428.793 46.4766 428.793 46.1045C428.793 45.7325 428.723 45.3998 428.584 45.1064C428.448 44.8131 428.227 44.5832 427.922 44.4169C427.616 44.2475 427.211 44.1628 426.706 44.1628H424.728V52.4561H423.603Z" fill="black"/>
<g clip-path="url(#clip3_238_433)">
<path d="M418.4 92.4894C420.899 92.4894 422.924 90.404 422.924 87.8316C422.924 85.2592 420.899 83.1738 418.4 83.1738C415.901 83.1738 413.875 85.2592 413.875 87.8316C413.875 90.404 415.901 92.4894 418.4 92.4894Z" stroke="black" stroke-width="2.12927" stroke-linecap="round" stroke-linejoin="round"/>
<path d="M429.564 92.4892C429.363 92.9575 429.303 93.477 429.392 93.9806C429.481 94.4843 429.714 94.949 430.062 95.3149L430.152 95.4081C430.433 95.6965 430.655 96.0389 430.807 96.4159C430.959 96.7929 431.037 97.1969 431.037 97.605C431.037 98.0131 430.959 98.4171 430.807 98.7941C430.655 99.1711 430.433 99.5135 430.152 99.8019C429.872 100.091 429.539 100.32 429.173 100.476C428.807 100.632 428.414 100.713 428.018 100.713C427.622 100.713 427.229 100.632 426.863 100.476C426.497 100.32 426.164 100.091 425.884 99.8019L425.793 99.7088C425.438 99.3508 424.986 99.1107 424.497 99.0194C424.008 98.9281 423.503 98.9897 423.048 99.1964C422.602 99.3932 422.222 99.72 421.954 100.137C421.686 100.553 421.542 101.041 421.54 101.541V101.805C421.54 102.628 421.222 103.418 420.657 104C420.091 104.583 419.324 104.91 418.524 104.91C417.724 104.91 416.956 104.583 416.391 104C415.825 103.418 415.507 102.628 415.507 101.805V101.665C415.496 101.151 415.334 100.653 415.043 100.235C414.753 99.8165 414.347 99.4981 413.878 99.3206C413.423 99.114 412.919 99.0523 412.43 99.1436C411.94 99.2349 411.489 99.4751 411.133 99.833L411.043 99.9261C410.763 100.215 410.43 100.444 410.064 100.6C409.698 100.756 409.305 100.837 408.909 100.837C408.512 100.837 408.12 100.756 407.754 100.6C407.387 100.444 407.055 100.215 406.775 99.9261C406.494 99.6377 406.272 99.2953 406.12 98.9183C405.968 98.5414 405.89 98.1373 405.89 97.7292C405.89 97.3211 405.968 96.9171 406.12 96.5401C406.272 96.1632 406.494 95.8207 406.775 95.5323L406.865 95.4391C407.213 95.0732 407.446 94.6085 407.535 94.1048C407.623 93.6012 407.564 93.0817 407.363 92.6134C407.172 92.1542 406.854 91.7626 406.45 91.4867C406.045 91.2109 405.571 91.0628 405.085 91.0608H404.829C404.029 91.0608 403.262 90.7337 402.696 90.1513C402.13 89.569 401.812 88.7792 401.812 87.9557C401.812 87.1321 402.13 86.3423 402.696 85.76C403.262 85.1776 404.029 84.8505 404.829 84.8505H404.965C405.464 84.8384 405.948 84.6721 406.354 84.3731C406.76 84.074 407.07 83.6561 407.242 83.1737C407.443 82.7054 407.503 82.1859 407.414 81.6823C407.325 81.1786 407.092 80.7139 406.744 80.3479L406.654 80.2548C406.373 79.9664 406.151 79.6239 405.999 79.247C405.847 78.87 405.769 78.4659 405.769 78.0579C405.769 77.6498 405.847 77.2457 405.999 76.8688C406.151 76.4918 406.373 76.1493 406.654 75.861C406.934 75.5722 407.267 75.3432 407.633 75.1869C407.999 75.0307 408.392 74.9502 408.788 74.9502C409.184 74.9502 409.577 75.0307 409.943 75.1869C410.309 75.3432 410.642 75.5722 410.922 75.861L411.013 75.9541C411.368 76.312 411.82 76.5521 412.309 76.6435C412.798 76.7348 413.303 76.6731 413.758 76.4665H413.878C414.324 76.2697 414.705 75.9429 414.973 75.5263C415.241 75.1098 415.385 74.6217 415.387 74.1221V73.8581C415.387 73.0346 415.704 72.2448 416.27 71.6624C416.836 71.0801 417.603 70.7529 418.403 70.7529C419.203 70.7529 419.97 71.0801 420.536 71.6624C421.102 72.2448 421.42 73.0346 421.42 73.8581V73.9978C421.421 74.4975 421.565 74.9856 421.833 75.4021C422.101 75.8187 422.482 76.1455 422.928 76.3423C423.383 76.5489 423.887 76.6106 424.377 76.5193C424.866 76.4279 425.317 76.1878 425.673 75.8299L425.763 75.7368C426.043 75.448 426.376 75.219 426.742 75.0627C427.108 74.9065 427.501 74.826 427.897 74.826C428.294 74.826 428.686 74.9065 429.053 75.0627C429.419 75.219 429.751 75.448 430.032 75.7368C430.312 76.0251 430.534 76.3676 430.686 76.7446C430.838 77.1215 430.916 77.5256 430.916 77.9337C430.916 78.3417 430.838 78.7458 430.686 79.1228C430.534 79.4997 430.312 79.8422 430.032 80.1306L429.941 80.2237C429.593 80.5897 429.36 81.0544 429.271 81.5581C429.183 82.0617 429.243 82.5812 429.443 83.0495V83.1737C429.635 83.6329 429.952 84.0245 430.357 84.3004C430.761 84.5762 431.235 84.7243 431.721 84.7263H431.977C432.777 84.7263 433.544 85.0534 434.11 85.6357C434.676 86.2181 434.994 87.0079 434.994 87.8314C434.994 88.655 434.676 89.4448 434.11 90.0271C433.544 90.6095 432.777 90.9366 431.977 90.9366H431.841C431.356 90.9386 430.882 91.0867 430.477 91.3625C430.073 91.6384 429.755 92.03 429.564 92.4892Z" stroke="black" stroke-width="2.12927" stroke-linecap="round" stroke-linejoin="round"/>
</g>
<path d="M363.795 97.6346C364.211 97.2189 364.211 96.5448 363.795 96.129L357.02 89.3537C356.604 88.938 355.93 88.938 355.514 89.3537C355.099 89.7695 355.099 90.4436 355.514 90.8594L361.537 96.8818L355.514 102.904C355.099 103.32 355.099 103.994 355.514 104.41C355.93 104.826 356.604 104.826 357.02 104.41L363.795 97.6346ZM228.898 96.8818V97.9465H230.994V96.8818V95.8172H228.898V96.8818ZM235.186 96.8818V97.9465H239.378V96.8818V95.8172H235.186V96.8818ZM243.57 96.8818V97.9465H247.762V96.8818V95.8172H243.57V96.8818ZM251.954 96.8818V97.9465H256.146V96.8818V95.8172H251.954V96.8818ZM260.338 96.8818V97.9465H264.53V96.8818V95.8172H260.338V96.8818ZM268.722 96.8818V97.9465H272.914V96.8818V95.8172H268.722V96.8818ZM277.106 96.8818V97.9465H281.298V96.8818V95.8172H277.106V96.8818ZM285.49 96.8818V97.9465H289.682V96.8818V95.8172H285.49V96.8818ZM293.874 96.8818V97.9465H298.066V96.8818V95.8172H293.874V96.8818ZM302.258 96.8818V97.9465H306.45V96.8818V95.8172H302.258V96.8818ZM310.642 96.8818V97.9465H314.834V96.8818V95.8172H310.642V96.8818ZM319.026 96.8818V97.9465H323.218V96.8818V95.8172H319.026V96.8818ZM327.41 96.8818V97.9465H331.602V96.8818V95.8172H327.41V96.8818ZM335.794 96.8818V97.9465H339.986V96.8818V95.8172H335.794V96.8818ZM344.178 96.8818V97.9465H348.37V96.8818V95.8172H344.178V96.8818ZM352.562 96.8818V97.9465H356.754V96.8818V95.8172H352.562V96.8818ZM360.946 96.8818V97.9465H363.042V96.8818V95.8172H360.946V96.8818Z" fill="black"/>
<path d="M274.058 88.6533V79.362H277.197C277.923 79.362 278.519 79.486 278.984 79.734C279.45 79.979 279.795 80.3162 280.019 80.7457C280.243 81.1752 280.355 81.6636 280.355 82.2111C280.355 82.7585 280.243 83.2439 280.019 83.6674C279.795 84.0908 279.452 84.4235 278.989 84.6655C278.526 84.9044 277.935 85.0239 277.215 85.0239H274.675V84.0076H277.179C277.675 84.0076 278.074 83.9351 278.377 83.7899C278.682 83.6447 278.903 83.439 279.039 83.1729C279.178 82.9037 279.248 82.5831 279.248 82.2111C279.248 81.8391 279.178 81.5139 279.039 81.2357C278.9 80.9574 278.677 80.7427 278.372 80.5914C278.067 80.4372 277.663 80.3601 277.161 80.3601H275.183V88.6533H274.058ZM278.431 84.4795L280.718 88.6533H279.411L277.161 84.4795H278.431ZM284.84 88.7985C284.211 88.7985 283.659 88.6488 283.184 88.3494C282.713 88.0499 282.344 87.631 282.077 87.0927C281.814 86.5543 281.683 85.9252 281.683 85.2054C281.683 84.4795 281.814 83.8458 282.077 83.3044C282.344 82.763 282.713 82.3426 283.184 82.0432C283.659 81.7438 284.211 81.5941 284.84 81.5941C285.469 81.5941 286.02 81.7438 286.492 82.0432C286.967 82.3426 287.336 82.763 287.599 83.3044C287.865 83.8458 287.998 84.4795 287.998 85.2054C287.998 85.9252 287.865 86.5543 287.599 87.0927C287.336 87.631 286.967 88.0499 286.492 88.3494C286.02 88.6488 285.469 88.7985 284.84 88.7985ZM284.84 87.8367C285.318 87.8367 285.711 87.7142 286.02 87.4692C286.328 87.2242 286.557 86.9021 286.705 86.5029C286.853 86.1036 286.927 85.6711 286.927 85.2054C286.927 84.7396 286.853 84.3056 286.705 83.9033C286.557 83.501 286.328 83.1759 286.02 82.9279C285.711 82.6799 285.318 82.5559 284.84 82.5559C284.362 82.5559 283.969 82.6799 283.661 82.9279C283.352 83.1759 283.124 83.501 282.976 83.9033C282.828 84.3056 282.753 84.7396 282.753 85.2054C282.753 85.6711 282.828 86.1036 282.976 86.5029C283.124 86.9021 283.352 87.2242 283.661 87.4692C283.969 87.7142 284.362 87.8367 284.84 87.8367ZM294.024 85.8042V81.6848H295.095V88.6533H294.024V87.4738H293.951C293.788 87.8276 293.534 88.1286 293.189 88.3766C292.844 88.6216 292.409 88.7441 291.883 88.7441C291.447 88.7441 291.06 88.6488 290.721 88.4582C290.382 88.2647 290.116 87.9743 289.923 87.5872C289.729 87.197 289.632 86.7055 289.632 86.1127V81.6848H290.703V86.0401C290.703 86.5482 290.845 86.9535 291.129 87.256C291.417 87.5584 291.783 87.7097 292.227 87.7097C292.494 87.7097 292.764 87.6416 293.039 87.5055C293.318 87.3694 293.551 87.1607 293.738 86.8794C293.929 86.5982 294.024 86.2397 294.024 85.8042ZM300.086 81.6848V82.5922H296.475V81.6848H300.086ZM297.527 80.0153H298.598V86.6571C298.598 86.9596 298.642 87.1864 298.73 87.3376C298.82 87.4859 298.935 87.5857 299.075 87.6371C299.217 87.6855 299.366 87.7097 299.524 87.7097C299.642 87.7097 299.738 87.7036 299.814 87.6915C299.89 87.6764 299.95 87.6643 299.995 87.6552L300.213 88.617C300.141 88.6442 300.039 88.6715 299.909 88.6987C299.779 88.7289 299.614 88.7441 299.415 88.7441C299.112 88.7441 298.816 88.679 298.526 88.549C298.238 88.4189 297.999 88.2208 297.809 87.9547C297.621 87.6885 297.527 87.3528 297.527 86.9475V80.0153ZM301.697 88.6533V81.6848H302.767V88.6533H301.697ZM302.241 80.5234C302.033 80.5234 301.853 80.4523 301.701 80.3102C301.553 80.168 301.479 79.9971 301.479 79.7975C301.479 79.5979 301.553 79.427 301.701 79.2848C301.853 79.1427 302.033 79.0716 302.241 79.0716C302.45 79.0716 302.628 79.1427 302.777 79.2848C302.928 79.427 303.003 79.5979 303.003 79.7975C303.003 79.9971 302.928 80.168 302.777 80.3102C302.628 80.4523 302.45 80.5234 302.241 80.5234ZM305.799 84.4613V88.6533H304.729V81.6848H305.763V82.7736H305.854C306.017 82.4198 306.265 82.1355 306.598 81.9207C306.93 81.7029 307.36 81.5941 307.886 81.5941C308.358 81.5941 308.771 81.6909 309.125 81.8844C309.479 82.075 309.754 82.3653 309.95 82.7555C310.147 83.1426 310.245 83.6326 310.245 84.2254V88.6533H309.175V84.298C309.175 83.7506 309.032 83.3241 308.748 83.0186C308.464 82.7101 308.074 82.5559 307.578 82.5559C307.236 82.5559 306.93 82.63 306.661 82.7782C306.395 82.9264 306.185 83.1426 306.031 83.4269C305.876 83.7112 305.799 84.056 305.799 84.4613ZM315.015 91.4117C314.497 91.4117 314.053 91.3452 313.681 91.2121C313.309 91.082 312.999 90.9096 312.751 90.6949C312.506 90.4832 312.311 90.2563 312.165 90.0144L313.018 89.4155C313.115 89.5425 313.238 89.6877 313.386 89.851C313.534 90.0174 313.737 90.161 313.994 90.282C314.254 90.406 314.594 90.468 315.015 90.468C315.577 90.468 316.041 90.3319 316.407 90.0597C316.773 89.7875 316.956 89.3611 316.956 88.7804V87.3649H316.866C316.787 87.4919 316.675 87.6492 316.53 87.8367C316.388 88.0212 316.182 88.186 315.913 88.3312C315.647 88.4734 315.287 88.5444 314.833 88.5444C314.271 88.5444 313.765 88.4114 313.318 88.1452C312.873 87.879 312.521 87.4919 312.261 86.9838C312.004 86.4757 311.875 85.8587 311.875 85.1328C311.875 84.419 312.001 83.7974 312.252 83.2681C312.503 82.7358 312.852 82.3245 313.3 82.0341C313.747 81.7408 314.264 81.5941 314.851 81.5941C315.305 81.5941 315.665 81.6697 315.931 81.8209C316.2 81.9691 316.406 82.1385 316.548 82.329C316.693 82.5165 316.805 82.6708 316.884 82.7918H316.993V81.6848H318.027V88.8529C318.027 89.4518 317.891 89.9387 317.619 90.3138C317.349 90.6919 316.987 90.9686 316.53 91.144C316.076 91.3225 315.571 91.4117 315.015 91.4117ZM314.978 87.5826C315.408 87.5826 315.771 87.4843 316.067 87.2877C316.363 87.0912 316.589 86.8084 316.743 86.4394C316.897 86.0704 316.974 85.6288 316.974 85.1146C316.974 84.6125 316.899 84.1695 316.748 83.7853C316.596 83.4012 316.373 83.1003 316.076 82.8825C315.78 82.6648 315.414 82.5559 314.978 82.5559C314.525 82.5559 314.147 82.6708 313.844 82.9007C313.545 83.1305 313.319 83.439 313.168 83.8262C313.02 84.2133 312.946 84.6428 312.946 85.1146C312.946 85.5985 313.021 86.0265 313.173 86.3985C313.327 86.7675 313.554 87.0579 313.853 87.2696C314.156 87.4783 314.531 87.5826 314.978 87.5826Z" fill="black"/>
<path d="M407.346 129.109V119.818H410.486C411.215 119.818 411.811 119.95 412.273 120.213C412.739 120.473 413.084 120.825 413.308 121.27C413.531 121.714 413.643 122.21 413.643 122.758C413.643 123.305 413.531 123.803 413.308 124.25C413.087 124.698 412.745 125.055 412.282 125.321C411.82 125.584 411.227 125.716 410.504 125.716H408.254V124.718H410.468C410.967 124.718 411.367 124.632 411.67 124.459C411.972 124.287 412.192 124.054 412.328 123.76C412.467 123.464 412.536 123.13 412.536 122.758C412.536 122.386 412.467 122.053 412.328 121.76C412.192 121.466 411.971 121.237 411.665 121.07C411.36 120.901 410.955 120.816 410.449 120.816H408.471V129.109H407.346ZM420.537 122.141C420.483 121.681 420.262 121.324 419.875 121.07C419.488 120.816 419.013 120.689 418.45 120.689C418.039 120.689 417.679 120.756 417.37 120.889C417.065 121.022 416.826 121.205 416.654 121.438C416.484 121.671 416.4 121.935 416.4 122.232C416.4 122.48 416.458 122.693 416.576 122.871C416.697 123.047 416.852 123.193 417.039 123.311C417.227 123.426 417.423 123.522 417.629 123.597C417.835 123.67 418.024 123.729 418.196 123.774L419.14 124.028C419.382 124.092 419.651 124.179 419.947 124.291C420.247 124.403 420.533 124.556 420.805 124.75C421.08 124.94 421.307 125.185 421.485 125.484C421.664 125.784 421.753 126.151 421.753 126.587C421.753 127.089 421.621 127.543 421.358 127.948C421.098 128.353 420.717 128.675 420.215 128.914C419.716 129.153 419.109 129.273 418.396 129.273C417.73 129.273 417.154 129.165 416.667 128.951C416.183 128.736 415.802 128.436 415.524 128.052C415.249 127.668 415.093 127.222 415.057 126.714H416.218C416.248 127.065 416.366 127.355 416.572 127.585C416.781 127.812 417.044 127.981 417.361 128.093C417.682 128.202 418.027 128.256 418.396 128.256C418.825 128.256 419.211 128.187 419.553 128.048C419.894 127.906 420.165 127.709 420.365 127.458C420.564 127.204 420.664 126.908 420.664 126.569C420.664 126.26 420.578 126.009 420.405 125.816C420.233 125.622 420.006 125.465 419.725 125.344C419.444 125.223 419.14 125.117 418.813 125.026L417.67 124.7C416.944 124.491 416.369 124.193 415.946 123.806C415.522 123.419 415.311 122.912 415.311 122.286C415.311 121.766 415.451 121.312 415.733 120.925C416.017 120.535 416.398 120.232 416.876 120.018C417.357 119.8 417.894 119.691 418.486 119.691C419.085 119.691 419.618 119.798 420.083 120.013C420.549 120.225 420.918 120.515 421.19 120.884C421.466 121.253 421.611 121.672 421.626 122.141H420.537ZM423.603 129.109V119.818H426.742C427.471 119.818 428.067 119.95 428.53 120.213C428.996 120.473 429.34 120.825 429.564 121.27C429.788 121.714 429.9 122.21 429.9 122.758C429.9 123.305 429.788 123.803 429.564 124.25C429.343 124.698 429.002 125.055 428.539 125.321C428.076 125.584 427.483 125.716 426.76 125.716H424.51V124.718H426.724C427.223 124.718 427.624 124.632 427.926 124.459C428.229 124.287 428.448 124.054 428.584 123.76C428.723 123.464 428.793 123.13 428.793 122.758C428.793 122.386 428.723 122.053 428.584 121.76C428.448 121.466 428.227 121.237 427.922 121.07C427.616 120.901 427.211 120.816 426.706 120.816H424.728V129.109H423.603Z" fill="black"/>
<path d="M429.56 170.208C429.359 170.676 429.299 171.196 429.388 171.699C429.477 172.203 429.71 172.668 430.058 173.034L430.148 173.127C430.429 173.415 430.651 173.758 430.803 174.135C430.955 174.512 431.033 174.916 431.033 175.324C431.033 175.732 430.955 176.136 430.803 176.513C430.651 176.89 430.429 177.232 430.148 177.521C429.868 177.809 429.535 178.038 429.169 178.195C428.803 178.351 428.411 178.431 428.014 178.431C427.618 178.431 427.225 178.351 426.859 178.195C426.493 178.038 426.16 177.809 425.88 177.521L425.789 177.428C425.434 177.07 424.983 176.829 424.493 176.738C424.004 176.647 423.499 176.708 423.045 176.915C422.598 177.112 422.218 177.439 421.95 177.855C421.682 178.272 421.538 178.76 421.536 179.26V179.524C421.536 180.347 421.218 181.137 420.653 181.719C420.087 182.302 419.32 182.629 418.52 182.629C417.72 182.629 416.953 182.302 416.387 181.719C415.821 181.137 415.503 180.347 415.503 179.524V179.384C415.492 178.87 415.33 178.371 415.04 177.953C414.749 177.535 414.343 177.217 413.874 177.039C413.42 176.833 412.915 176.771 412.426 176.862C411.936 176.954 411.485 177.194 411.129 177.552L411.039 177.645C410.759 177.934 410.426 178.163 410.06 178.319C409.694 178.475 409.301 178.556 408.905 178.556C408.508 178.556 408.116 178.475 407.75 178.319C407.384 178.163 407.051 177.934 406.771 177.645C406.49 177.356 406.268 177.014 406.116 176.637C405.964 176.26 405.886 175.856 405.886 175.448C405.886 175.04 405.964 174.636 406.116 174.259C406.268 173.882 406.49 173.539 406.771 173.251L406.861 173.158C407.209 172.792 407.442 172.327 407.531 171.824C407.62 171.32 407.56 170.8 407.359 170.332C407.168 169.873 406.85 169.481 406.446 169.205C406.041 168.93 405.567 168.782 405.081 168.78H404.825C404.025 168.78 403.258 168.452 402.692 167.87C402.126 167.288 401.809 166.498 401.809 165.674C401.809 164.851 402.126 164.061 402.692 163.479C403.258 162.896 404.025 162.569 404.825 162.569H404.961C405.46 162.557 405.944 162.391 406.35 162.092C406.756 161.793 407.066 161.375 407.238 160.892C407.439 160.424 407.499 159.905 407.41 159.401C407.321 158.897 407.088 158.433 406.741 158.067L406.65 157.974C406.37 157.685 406.147 157.343 405.995 156.966C405.843 156.589 405.765 156.185 405.765 155.777C405.765 155.369 405.843 154.964 405.995 154.588C406.147 154.211 406.37 153.868 406.65 153.58C406.93 153.291 407.263 153.062 407.629 152.906C407.995 152.749 408.388 152.669 408.784 152.669C409.181 152.669 409.573 152.749 409.939 152.906C410.305 153.062 410.638 153.291 410.918 153.58L411.009 153.673C411.364 154.031 411.816 154.271 412.305 154.362C412.794 154.454 413.299 154.392 413.754 154.185H413.874C414.321 153.988 414.701 153.662 414.969 153.245C415.237 152.829 415.381 152.34 415.383 151.841V151.577C415.383 150.753 415.7 149.964 416.266 149.381C416.832 148.799 417.599 148.472 418.399 148.472C419.199 148.472 419.966 148.799 420.532 149.381C421.098 149.964 421.416 150.753 421.416 151.577V151.717C421.418 152.216 421.561 152.704 421.829 153.121C422.097 153.537 422.478 153.864 422.924 154.061C423.379 154.268 423.883 154.329 424.373 154.238C424.862 154.147 425.313 153.907 425.669 153.549L425.759 153.456C426.039 153.167 426.372 152.938 426.738 152.781C427.105 152.625 427.497 152.545 427.893 152.545C428.29 152.545 428.682 152.625 429.049 152.781C429.415 152.938 429.747 153.167 430.028 153.456C430.308 153.744 430.531 154.086 430.682 154.463C430.834 154.84 430.912 155.244 430.912 155.652C430.912 156.06 430.834 156.465 430.682 156.842C430.531 157.218 430.308 157.561 430.028 157.849L429.937 157.942C429.589 158.308 429.356 158.773 429.267 159.277C429.179 159.78 429.239 160.3 429.439 160.768V160.892C429.631 161.352 429.948 161.743 430.353 162.019C430.757 162.295 431.232 162.443 431.717 162.445H431.973C432.773 162.445 433.541 162.772 434.106 163.354C434.672 163.937 434.99 164.727 434.99 165.55C434.99 166.374 434.672 167.164 434.106 167.746C433.541 168.328 432.773 168.655 431.973 168.655H431.838C431.352 168.657 430.878 168.805 430.473 169.081C430.069 169.357 429.751 169.749 429.56 170.208Z" stroke="black" stroke-width="2.12927" stroke-linecap="round" stroke-linejoin="round"/>
<path d="M418.4 170.209C420.899 170.209 422.924 168.124 422.924 165.551C422.924 162.979 420.899 160.894 418.4 160.894C415.901 160.894 413.875 162.979 413.875 165.551C413.875 168.124 415.901 170.209 418.4 170.209Z" stroke="black" stroke-width="2.12927" stroke-linecap="round" stroke-linejoin="round"/>
<path d="M274.054 158.92V149.629H277.194C277.92 149.629 278.515 149.753 278.981 150.001C279.447 150.246 279.792 150.583 280.016 151.012C280.239 151.442 280.351 151.93 280.351 152.478C280.351 153.025 280.239 153.511 280.016 153.934C279.792 154.357 279.449 154.69 278.986 154.932C278.523 155.171 277.932 155.29 277.212 155.29H274.671V154.274H277.176C277.672 154.274 278.071 154.202 278.373 154.056C278.679 153.911 278.9 153.706 279.036 153.439C279.175 153.17 279.244 152.85 279.244 152.478C279.244 152.106 279.175 151.781 279.036 151.502C278.897 151.224 278.674 151.009 278.369 150.858C278.063 150.704 277.66 150.627 277.157 150.627H275.179V158.92H274.054ZM278.428 154.746L280.714 158.92H279.408L277.157 154.746H278.428ZM284.837 159.065C284.208 159.065 283.656 158.915 283.181 158.616C282.709 158.317 282.34 157.898 282.074 157.359C281.811 156.821 281.679 156.192 281.679 155.472C281.679 154.746 281.811 154.112 282.074 153.571C282.34 153.03 282.709 152.609 283.181 152.31C283.656 152.01 284.208 151.861 284.837 151.861C285.466 151.861 286.017 152.01 286.488 152.31C286.963 152.609 287.332 153.03 287.595 153.571C287.862 154.112 287.995 154.746 287.995 155.472C287.995 156.192 287.862 156.821 287.595 157.359C287.332 157.898 286.963 158.317 286.488 158.616C286.017 158.915 285.466 159.065 284.837 159.065ZM284.837 158.103C285.315 158.103 285.708 157.981 286.017 157.736C286.325 157.491 286.554 157.169 286.702 156.769C286.85 156.37 286.924 155.938 286.924 155.472C286.924 155.006 286.85 154.572 286.702 154.17C286.554 153.768 286.325 153.442 286.017 153.194C285.708 152.946 285.315 152.822 284.837 152.822C284.359 152.822 283.966 152.946 283.658 153.194C283.349 153.442 283.121 153.768 282.972 154.17C282.824 154.572 282.75 155.006 282.75 155.472C282.75 155.938 282.824 156.37 282.972 156.769C283.121 157.169 283.349 157.491 283.658 157.736C283.966 157.981 284.359 158.103 284.837 158.103ZM294.021 156.071V151.951H295.091V158.92H294.021V157.74H293.948C293.785 158.094 293.531 158.395 293.186 158.643C292.841 158.888 292.406 159.011 291.879 159.011C291.444 159.011 291.057 158.915 290.718 158.725C290.379 158.531 290.113 158.241 289.919 157.854C289.726 157.464 289.629 156.972 289.629 156.379V151.951H290.7V156.307C290.7 156.815 290.842 157.22 291.126 157.523C291.414 157.825 291.78 157.976 292.224 157.976C292.49 157.976 292.761 157.908 293.036 157.772C293.314 157.636 293.547 157.427 293.735 157.146C293.925 156.865 294.021 156.506 294.021 156.071ZM300.083 151.951V152.859H296.472V151.951H300.083ZM297.524 150.282H298.595V156.924C298.595 157.226 298.639 157.453 298.727 157.604C298.817 157.752 298.932 157.852 299.071 157.904C299.213 157.952 299.363 157.976 299.52 157.976C299.638 157.976 299.735 157.97 299.811 157.958C299.886 157.943 299.947 157.931 299.992 157.922L300.21 158.884C300.137 158.911 300.036 158.938 299.906 158.965C299.776 158.996 299.611 159.011 299.412 159.011C299.109 159.011 298.813 158.946 298.522 158.816C298.235 158.686 297.996 158.487 297.806 158.221C297.618 157.955 297.524 157.619 297.524 157.214V150.282ZM301.694 158.92V151.951H302.764V158.92H301.694ZM302.238 150.79C302.029 150.79 301.849 150.719 301.698 150.577C301.55 150.435 301.476 150.264 301.476 150.064C301.476 149.864 301.55 149.694 301.698 149.551C301.849 149.409 302.029 149.338 302.238 149.338C302.447 149.338 302.625 149.409 302.773 149.551C302.925 149.694 303 149.864 303 150.064C303 150.264 302.925 150.435 302.773 150.577C302.625 150.719 302.447 150.79 302.238 150.79ZM305.796 154.728V158.92H304.725V151.951H305.76V153.04H305.85C306.014 152.686 306.262 152.402 306.594 152.187C306.927 151.97 307.357 151.861 307.883 151.861C308.355 151.861 308.768 151.957 309.121 152.151C309.475 152.342 309.751 152.632 309.947 153.022C310.144 153.409 310.242 153.899 310.242 154.492V158.92H309.171V154.565C309.171 154.017 309.029 153.591 308.745 153.285C308.461 152.977 308.07 152.822 307.574 152.822C307.233 152.822 306.927 152.897 306.658 153.045C306.392 153.193 306.182 153.409 306.027 153.694C305.873 153.978 305.796 154.323 305.796 154.728ZM315.011 161.678C314.494 161.678 314.05 161.612 313.678 161.479C313.305 161.349 312.995 161.176 312.747 160.961C312.502 160.75 312.307 160.523 312.162 160.281L313.015 159.682C313.112 159.809 313.234 159.954 313.383 160.118C313.531 160.284 313.733 160.428 313.991 160.549C314.251 160.673 314.591 160.735 315.011 160.735C315.574 160.735 316.038 160.599 316.404 160.326C316.77 160.054 316.953 159.628 316.953 159.047V157.631H316.862C316.784 157.759 316.672 157.916 316.527 158.103C316.384 158.288 316.179 158.453 315.91 158.598C315.643 158.74 315.284 158.811 314.83 158.811C314.267 158.811 313.762 158.678 313.315 158.412C312.87 158.146 312.518 157.759 312.257 157.25C312 156.742 311.872 156.125 311.872 155.399C311.872 154.686 311.997 154.064 312.248 153.535C312.499 153.002 312.849 152.591 313.296 152.301C313.744 152.007 314.261 151.861 314.848 151.861C315.302 151.861 315.662 151.936 315.928 152.088C316.197 152.236 316.403 152.405 316.545 152.596C316.69 152.783 316.802 152.937 316.88 153.058H316.989V151.951H318.024V159.12C318.024 159.718 317.888 160.205 317.615 160.58C317.346 160.958 316.983 161.235 316.527 161.411C316.073 161.589 315.568 161.678 315.011 161.678ZM314.975 157.849C315.405 157.849 315.767 157.751 316.064 157.554C316.36 157.358 316.586 157.075 316.74 156.706C316.894 156.337 316.971 155.895 316.971 155.381C316.971 154.879 316.896 154.436 316.744 154.052C316.593 153.668 316.369 153.367 316.073 153.149C315.777 152.931 315.411 152.822 314.975 152.822C314.521 152.822 314.143 152.937 313.841 153.167C313.541 153.397 313.316 153.706 313.165 154.093C313.017 154.48 312.943 154.909 312.943 155.381C312.943 155.865 313.018 156.293 313.169 156.665C313.324 157.034 313.55 157.324 313.85 157.536C314.152 157.745 314.527 157.849 314.975 157.849Z" fill="black"/>
<path d="M363.79 166.836C364.206 166.42 364.206 165.746 363.79 165.33L357.015 158.555C356.599 158.139 355.925 158.139 355.509 158.555C355.094 158.971 355.094 159.645 355.509 160.061L361.532 166.083L355.509 172.105C355.094 172.521 355.094 173.195 355.509 173.611C355.925 174.027 356.599 174.027 357.015 173.611L363.79 166.836ZM188.438 166.083L188.438 167.148L363.038 167.148L363.038 166.083L363.038 165.018L188.437 165.018L188.438 166.083Z" fill="black"/>
<path d="M407.342 199.376V190.085H410.482C411.211 190.085 411.807 190.216 412.269 190.479C412.735 190.739 413.08 191.092 413.304 191.536C413.528 191.981 413.639 192.477 413.639 193.024C413.639 193.572 413.528 194.069 413.304 194.517C413.083 194.965 412.741 195.322 412.278 195.588C411.816 195.851 411.223 195.982 410.5 195.982H408.25V194.984H410.464C410.963 194.984 411.364 194.898 411.666 194.726C411.968 194.553 412.188 194.32 412.324 194.027C412.463 193.731 412.533 193.396 412.533 193.024C412.533 192.652 412.463 192.32 412.324 192.026C412.188 191.733 411.967 191.503 411.661 191.337C411.356 191.167 410.951 191.083 410.446 191.083H408.468V199.376H407.342ZM420.533 192.407C420.479 191.948 420.258 191.591 419.871 191.337C419.484 191.083 419.009 190.956 418.446 190.956C418.035 190.956 417.675 191.022 417.366 191.155C417.061 191.288 416.822 191.471 416.65 191.704C416.48 191.937 416.396 192.202 416.396 192.498C416.396 192.746 416.455 192.959 416.573 193.138C416.694 193.313 416.848 193.46 417.035 193.578C417.223 193.693 417.419 193.788 417.625 193.864C417.831 193.936 418.02 193.995 418.192 194.041L419.136 194.295C419.378 194.358 419.647 194.446 419.943 194.558C420.243 194.67 420.529 194.823 420.801 195.016C421.076 195.207 421.303 195.452 421.481 195.751C421.66 196.051 421.749 196.418 421.749 196.854C421.749 197.356 421.617 197.809 421.354 198.215C421.094 198.62 420.713 198.942 420.211 199.181C419.712 199.42 419.106 199.539 418.392 199.539C417.726 199.539 417.15 199.432 416.663 199.217C416.179 199.002 415.798 198.703 415.52 198.319C415.245 197.935 415.089 197.489 415.053 196.981H416.214C416.244 197.331 416.362 197.622 416.568 197.852C416.777 198.078 417.04 198.248 417.357 198.36C417.678 198.469 418.023 198.523 418.392 198.523C418.821 198.523 419.207 198.453 419.549 198.314C419.89 198.172 420.161 197.976 420.361 197.725C420.56 197.471 420.66 197.174 420.66 196.835C420.66 196.527 420.574 196.276 420.402 196.082C420.229 195.889 420.002 195.731 419.721 195.61C419.44 195.489 419.136 195.384 418.809 195.293L417.666 194.966C416.94 194.758 416.365 194.46 415.942 194.072C415.518 193.685 415.307 193.179 415.307 192.553C415.307 192.032 415.447 191.579 415.729 191.192C416.013 190.801 416.394 190.499 416.872 190.284C417.353 190.066 417.89 189.958 418.483 189.958C419.081 189.958 419.614 190.065 420.079 190.28C420.545 190.491 420.914 190.782 421.186 191.151C421.462 191.52 421.607 191.939 421.622 192.407H420.533ZM423.599 199.376V190.085H426.738C427.467 190.085 428.063 190.216 428.526 190.479C428.992 190.739 429.336 191.092 429.56 191.536C429.784 191.981 429.896 192.477 429.896 193.024C429.896 193.572 429.784 194.069 429.56 194.517C429.339 194.965 428.998 195.322 428.535 195.588C428.072 195.851 427.479 195.982 426.757 195.982H424.506V194.984H426.72C427.219 194.984 427.62 194.898 427.922 194.726C428.225 194.553 428.444 194.32 428.58 194.027C428.719 193.731 428.789 193.396 428.789 193.024C428.789 192.652 428.719 192.32 428.58 192.026C428.444 191.733 428.223 191.503 427.918 191.337C427.612 191.167 427.207 191.083 426.702 191.083H424.724V199.376H423.599Z" fill="black"/>
<path d="M160.102 51.3916V42.1002H163.241C163.97 42.1002 164.566 42.2318 165.029 42.4949C165.494 42.7551 165.839 43.1074 166.063 43.552C166.287 43.9966 166.399 44.4926 166.399 45.0401C166.399 45.5875 166.287 46.0851 166.063 46.5327C165.842 46.9803 165.5 47.3372 165.038 47.6034C164.575 47.8665 163.982 47.9981 163.259 47.9981H161.009V47H163.223C163.722 47 164.123 46.9138 164.425 46.7414C164.728 46.569 164.947 46.3361 165.083 46.0427C165.222 45.7463 165.292 45.4121 165.292 45.0401C165.292 44.6681 165.222 44.3354 165.083 44.042C164.947 43.7486 164.726 43.5187 164.421 43.3524C164.115 43.183 163.71 43.0983 163.205 43.0983H161.227V51.3916H160.102ZM176.051 46.7459C176.051 47.7259 175.874 48.5727 175.52 49.2865C175.166 50.0003 174.681 50.5508 174.064 50.9379C173.447 51.3251 172.742 51.5186 171.949 51.5186C171.157 51.5186 170.452 51.3251 169.835 50.9379C169.218 50.5508 168.733 50.0003 168.379 49.2865C168.025 48.5727 167.848 47.7259 167.848 46.7459C167.848 45.766 168.025 44.9191 168.379 44.2053C168.733 43.4915 169.218 42.9411 169.835 42.5539C170.452 42.1668 171.157 41.9732 171.949 41.9732C172.742 41.9732 173.447 42.1668 174.064 42.5539C174.681 42.9411 175.166 43.4915 175.52 44.2053C175.874 44.9191 176.051 45.766 176.051 46.7459ZM174.962 46.7459C174.962 45.9414 174.827 45.2624 174.558 44.7089C174.292 44.1554 173.931 43.7365 173.474 43.4522C173.02 43.1679 172.512 43.0258 171.949 43.0258C171.387 43.0258 170.877 43.1679 170.421 43.4522C169.967 43.7365 169.605 44.1554 169.336 44.7089C169.07 45.2624 168.937 45.9414 168.937 46.7459C168.937 47.5504 169.07 48.2295 169.336 48.7829C169.605 49.3364 169.967 49.7553 170.421 50.0396C170.877 50.3239 171.387 50.4661 171.949 50.4661C172.512 50.4661 173.02 50.3239 173.474 50.0396C173.931 49.7553 174.292 49.3364 174.558 48.7829C174.827 48.2295 174.962 47.5504 174.962 46.7459ZM180.571 41.6647L177.576 52.7889H176.596L179.591 41.6647H180.571ZM189.824 46.7459C189.824 47.7259 189.648 48.5727 189.294 49.2865C188.94 50.0003 188.454 50.5508 187.837 50.9379C187.22 51.3251 186.516 51.5186 185.723 51.5186C184.931 51.5186 184.226 51.3251 183.609 50.9379C182.992 50.5508 182.507 50.0003 182.153 49.2865C181.799 48.5727 181.622 47.7259 181.622 46.7459C181.622 45.766 181.799 44.9191 182.153 44.2053C182.507 43.4915 182.992 42.9411 183.609 42.5539C184.226 42.1668 184.931 41.9732 185.723 41.9732C186.516 41.9732 187.22 42.1668 187.837 42.5539C188.454 42.9411 188.94 43.4915 189.294 44.2053C189.648 44.9191 189.824 45.766 189.824 46.7459ZM188.736 46.7459C188.736 45.9414 188.601 45.2624 188.332 44.7089C188.066 44.1554 187.704 43.7365 187.248 43.4522C186.794 43.1679 186.286 43.0258 185.723 43.0258C185.161 43.0258 184.651 43.1679 184.194 43.4522C183.741 43.7365 183.379 44.1554 183.11 44.7089C182.844 45.2624 182.711 45.9414 182.711 46.7459C182.711 47.5504 182.844 48.2295 183.11 48.7829C183.379 49.3364 183.741 49.7553 184.194 50.0396C184.651 50.3239 185.161 50.4661 185.723 50.4661C186.286 50.4661 186.794 50.3239 187.248 50.0396C187.704 49.7553 188.066 49.3364 188.332 48.7829C188.601 48.2295 188.736 47.5504 188.736 46.7459ZM196.798 44.4231C196.743 43.9634 196.522 43.6065 196.135 43.3524C195.748 43.0983 195.273 42.9713 194.711 42.9713C194.299 42.9713 193.939 43.0378 193.631 43.1709C193.325 43.304 193.086 43.487 192.914 43.7199C192.745 43.9528 192.66 44.2174 192.66 44.5138C192.66 44.7618 192.719 44.9751 192.837 45.1535C192.958 45.3289 193.112 45.4756 193.3 45.5936C193.487 45.7085 193.684 45.8038 193.889 45.8794C194.095 45.952 194.284 46.011 194.457 46.0563L195.4 46.3104C195.642 46.3739 195.911 46.4616 196.208 46.5735C196.507 46.6854 196.793 46.8382 197.065 47.0317C197.34 47.2223 197.567 47.4673 197.746 47.7667C197.924 48.0661 198.013 48.4336 198.013 48.8691C198.013 49.3712 197.882 49.8249 197.619 50.2302C197.359 50.6355 196.977 50.9576 196.475 51.1965C195.976 51.4355 195.37 51.5549 194.656 51.5549C193.991 51.5549 193.415 51.4476 192.928 51.2328C192.444 51.0181 192.063 50.7186 191.784 50.3345C191.509 49.9504 191.353 49.5043 191.317 48.9962H192.478C192.509 49.347 192.627 49.6374 192.832 49.8672C193.041 50.0941 193.304 50.2635 193.622 50.3754C193.942 50.4842 194.287 50.5387 194.656 50.5387C195.086 50.5387 195.471 50.4691 195.813 50.33C196.155 50.1878 196.426 49.9912 196.625 49.7402C196.825 49.4861 196.925 49.1897 196.925 48.851C196.925 48.5425 196.838 48.2915 196.666 48.0979C196.494 47.9043 196.267 47.747 195.985 47.6261C195.704 47.5051 195.4 47.3992 195.074 47.3085L193.93 46.9818C193.204 46.7731 192.63 46.4752 192.206 46.0881C191.783 45.7009 191.571 45.1943 191.571 44.5683C191.571 44.048 191.712 43.5944 191.993 43.2072C192.277 42.8171 192.658 42.5146 193.136 42.2999C193.617 42.0821 194.154 41.9732 194.747 41.9732C195.346 41.9732 195.878 42.0806 196.344 42.2953C196.81 42.507 197.179 42.7974 197.451 43.1664C197.726 43.5354 197.871 43.9543 197.886 44.4231H196.798Z" fill="black"/>
<path d="M155.966 233.444H153.098V224.153H156.093C156.994 224.153 157.765 224.339 158.406 224.711C159.048 225.08 159.539 225.611 159.881 226.303C160.223 226.993 160.394 227.819 160.394 228.781C160.394 229.748 160.221 230.582 159.876 231.28C159.532 231.976 159.03 232.511 158.37 232.886C157.711 233.258 156.909 233.444 155.966 233.444ZM154.224 232.446H155.893C156.661 232.446 157.298 232.298 157.803 232.002C158.308 231.705 158.685 231.283 158.933 230.736C159.181 230.188 159.305 229.537 159.305 228.781C159.305 228.03 159.182 227.385 158.937 226.843C158.692 226.299 158.326 225.881 157.839 225.591C157.352 225.298 156.746 225.151 156.02 225.151H154.224V232.446ZM164.186 233.608C163.745 233.608 163.344 233.524 162.984 233.358C162.624 233.189 162.338 232.945 162.127 232.628C161.915 232.307 161.809 231.92 161.809 231.466C161.809 231.067 161.888 230.743 162.045 230.495C162.202 230.244 162.412 230.048 162.676 229.906C162.939 229.763 163.229 229.658 163.547 229.588C163.867 229.515 164.189 229.458 164.513 229.416C164.936 229.361 165.28 229.32 165.543 229.293C165.809 229.263 166.003 229.213 166.124 229.143C166.248 229.074 166.31 228.953 166.31 228.781V228.744C166.31 228.297 166.187 227.949 165.942 227.701C165.7 227.453 165.333 227.329 164.84 227.329C164.329 227.329 163.928 227.441 163.637 227.664C163.347 227.888 163.143 228.127 163.025 228.381L162.009 228.018C162.19 227.595 162.432 227.265 162.735 227.029C163.04 226.79 163.373 226.624 163.733 226.53C164.096 226.433 164.453 226.385 164.803 226.385C165.027 226.385 165.284 226.412 165.575 226.467C165.868 226.518 166.151 226.626 166.423 226.789C166.698 226.952 166.927 227.199 167.108 227.528C167.29 227.858 167.38 228.3 167.38 228.853V233.444H166.31V232.501H166.255C166.183 232.652 166.062 232.814 165.892 232.986C165.723 233.159 165.498 233.305 165.216 233.426C164.935 233.547 164.592 233.608 164.186 233.608ZM164.35 232.646C164.773 232.646 165.13 232.563 165.42 232.396C165.714 232.23 165.935 232.015 166.083 231.752C166.234 231.489 166.31 231.212 166.31 230.922V229.942C166.264 229.996 166.164 230.046 166.01 230.092C165.859 230.134 165.684 230.172 165.484 230.205C165.287 230.235 165.095 230.263 164.908 230.287C164.723 230.308 164.574 230.326 164.459 230.341C164.18 230.377 163.92 230.436 163.678 230.518C163.439 230.597 163.246 230.716 163.098 230.877C162.952 231.034 162.88 231.249 162.88 231.521C162.88 231.893 163.017 232.174 163.293 232.365C163.571 232.552 163.923 232.646 164.35 232.646ZM172.365 226.476V227.383H168.754V226.476H172.365ZM169.806 224.806H170.877V231.448C170.877 231.751 170.921 231.977 171.009 232.129C171.099 232.277 171.214 232.377 171.353 232.428C171.496 232.476 171.645 232.501 171.803 232.501C171.92 232.501 172.017 232.495 172.093 232.483C172.168 232.467 172.229 232.455 172.274 232.446L172.492 233.408C172.42 233.435 172.318 233.462 172.188 233.49C172.058 233.52 171.893 233.535 171.694 233.535C171.391 233.535 171.095 233.47 170.804 233.34C170.517 233.21 170.278 233.012 170.088 232.746C169.9 232.48 169.806 232.144 169.806 231.739V224.806ZM176.026 233.608C175.585 233.608 175.184 233.524 174.824 233.358C174.464 233.189 174.178 232.945 173.967 232.628C173.755 232.307 173.649 231.92 173.649 231.466C173.649 231.067 173.728 230.743 173.885 230.495C174.042 230.244 174.252 230.048 174.516 229.906C174.779 229.763 175.069 229.658 175.387 229.588C175.707 229.515 176.029 229.458 176.353 229.416C176.776 229.361 177.12 229.32 177.383 229.293C177.649 229.263 177.843 229.213 177.963 229.143C178.087 229.074 178.149 228.953 178.149 228.781V228.744C178.149 228.297 178.027 227.949 177.782 227.701C177.54 227.453 177.173 227.329 176.68 227.329C176.168 227.329 175.768 227.441 175.477 227.664C175.187 227.888 174.983 228.127 174.865 228.381L173.849 228.018C174.03 227.595 174.272 227.265 174.575 227.029C174.88 226.79 175.213 226.624 175.573 226.53C175.936 226.433 176.292 226.385 176.643 226.385C176.867 226.385 177.124 226.412 177.415 226.467C177.708 226.518 177.991 226.626 178.263 226.789C178.538 226.952 178.767 227.199 178.948 227.528C179.129 227.858 179.22 228.3 179.22 228.853V233.444H178.149V232.501H178.095C178.022 232.652 177.901 232.814 177.732 232.986C177.563 233.159 177.337 233.305 177.056 233.426C176.775 233.547 176.432 233.608 176.026 233.608ZM176.19 232.646C176.613 232.646 176.97 232.563 177.26 232.396C177.554 232.23 177.774 232.015 177.923 231.752C178.074 231.489 178.149 231.212 178.149 230.922V229.942C178.104 229.996 178.004 230.046 177.85 230.092C177.699 230.134 177.523 230.172 177.324 230.205C177.127 230.235 176.935 230.263 176.748 230.287C176.563 230.308 176.413 230.326 176.298 230.341C176.02 230.377 175.76 230.436 175.518 230.518C175.279 230.597 175.086 230.716 174.937 230.877C174.792 231.034 174.72 231.249 174.72 231.521C174.72 231.893 174.857 232.174 175.133 232.365C175.411 232.552 175.763 232.646 176.19 232.646Z" fill="black"/>
<path d="M114.668 23.1102C115.084 22.6945 115.084 22.0204 114.668 21.6046L107.893 14.8293C107.477 14.4136 106.803 14.4136 106.388 14.8293C105.972 15.2451 105.972 15.9192 106.388 16.3349L112.41 22.3574L106.388 28.3799C105.972 28.7957 105.972 29.4698 106.388 29.8855C106.803 30.3013 107.477 30.3013 107.893 29.8855L114.668 23.1102ZM70.2656 22.3574V23.4221H113.916V22.3574V21.2928H70.2656V22.3574Z" fill="black"/>
<path d="M193.184 18.2565C197.723 19.7495 199.238 19.7495 199.995 23.109C201.31 28.9504 193.943 28.7078 190.537 28.7078H178.815H176.543C173.76 28.7093 161.132 28.9947 158.77 27.9615C156.407 26.9282 156.502 25.7218 156.5 21.9892C159.523 18.2565 159.902 19.7495 162.929 17.5103C161.036 10.0449 166.526 7.74168 169.735 6.6855C172.004 5.93864 176.921 6.31215 180.703 11.1647C185.242 7.80498 187.133 8.92479 189.781 10.7911C192.428 12.6575 192.477 14.5238 193.184 18.2565Z" stroke="black" stroke-width="2.12927" stroke-linecap="round" stroke-linejoin="round"/>
<path d="M547.221 11.7109L532.316 26.6158" stroke="black" stroke-width="2.12927" stroke-linecap="round" stroke-linejoin="round"/>
<path d="M532.316 11.7109L547.221 26.6158" stroke="black" stroke-width="2.12927" stroke-linecap="round" stroke-linejoin="round"/>
<path d="M188.438 69.7334L188.438 167.147" stroke="black" stroke-width="2.12927"/>
<path d="M166.835 70.5773C166.419 70.1615 165.745 70.1615 165.329 70.5773L158.554 77.3526C158.138 77.7683 158.138 78.4424 158.554 78.8582C158.97 79.2739 159.644 79.2739 160.06 78.8582L166.082 72.8357L172.105 78.8582C172.52 79.2739 173.194 79.2739 173.61 78.8582C174.026 78.4424 174.026 77.7683 173.61 77.3526L166.835 70.5773ZM166.082 71.3301H165.017V178.858H166.082H167.147V71.3301H166.082Z" fill="black"/>
<path d="M168.209 190.569H159.692C159.127 190.569 158.585 190.794 158.186 191.193C157.787 191.592 157.562 192.134 157.562 192.699V209.733C157.562 210.297 157.787 210.839 158.186 211.238C158.585 211.638 159.127 211.862 159.692 211.862H172.467C173.032 211.862 173.574 211.638 173.973 211.238C174.372 210.839 174.597 210.297 174.597 209.733V196.957L168.209 190.569Z" stroke="black" stroke-width="2.12927" stroke-linecap="round" stroke-linejoin="round"/>
<path d="M168.211 190.569V196.957H174.599" stroke="black" stroke-width="2.12927" stroke-linecap="round" stroke-linejoin="round"/>
<path d="M170.341 202.28H161.824" stroke="black" stroke-width="2.12927" stroke-linecap="round" stroke-linejoin="round"/>
<path d="M170.341 206.539H161.824" stroke="black" stroke-width="2.12927" stroke-linecap="round" stroke-linejoin="round"/>
<path d="M163.953 198.022H162.889H161.824" stroke="black" stroke-width="2.12927" stroke-linecap="round" stroke-linejoin="round"/>
<path d="M406 261H166V242" stroke="black" stroke-width="2"/>
<defs>
<clipPath id="clip0_238_433">
<rect width="37.2622" height="37.2622" fill="white" transform="translate(639.844 73.46)"/>
</clipPath>
<clipPath id="clip1_238_433">
<rect width="37.2622" height="37.2622" fill="white" transform="translate(0 4.25879)"/>
</clipPath>
<clipPath id="clip2_238_433">
<rect width="36.1976" height="37.2622" fill="white" transform="translate(400.305)"/>
</clipPath>
<clipPath id="clip3_238_433">
<rect width="36.1976" height="37.2622" fill="white" transform="translate(400.305 69.2012)"/>
</clipPath>
</defs>
</svg>
