<svg width="396" height="118" viewBox="0 0 396 118" fill="none" xmlns="http://www.w3.org/2000/svg">
<path d="M13.1263 33.0837C13.9317 33.0837 14.5846 32.4307 14.5846 31.6253C14.5846 30.8199 13.9317 30.167 13.1263 30.167C12.3209 30.167 11.668 30.8199 11.668 31.6253C11.668 32.4307 12.3209 33.0837 13.1263 33.0837Z" stroke="black" stroke-width="2" stroke-linecap="round" stroke-linejoin="round"/>
<path d="M29.1654 33.0837C29.9708 33.0837 30.6237 32.4307 30.6237 31.6253C30.6237 30.8199 29.9708 30.167 29.1654 30.167C28.3599 30.167 27.707 30.8199 27.707 31.6253C27.707 32.4307 28.3599 33.0837 29.1654 33.0837Z" stroke="black" stroke-width="2" stroke-linecap="round" stroke-linejoin="round"/>
<path d="M1.45703 2.45801H7.29036L11.1987 21.9851C11.3321 22.6565 11.6973 23.2596 12.2305 23.6889C12.7638 24.1181 13.431 24.3461 14.1154 24.333H28.2904C28.9748 24.3461 29.642 24.1181 30.1752 23.6889C30.7084 23.2596 31.0737 22.6565 31.207 21.9851L33.5404 9.74967H8.7487" stroke="black" stroke-width="2" stroke-linecap="round" stroke-linejoin="round"/>
<g clip-path="url(#clip0_492_95)">
<path d="M148 22.875C150.347 22.875 152.25 20.9162 152.25 18.5C152.25 16.0838 150.347 14.125 148 14.125C145.653 14.125 143.75 16.0838 143.75 18.5C143.75 20.9162 145.653 22.875 148 22.875Z" stroke="black" stroke-width="2" stroke-linecap="round" stroke-linejoin="round"/>
<path d="M158.485 22.8747C158.296 23.3145 158.24 23.8025 158.323 24.2755C158.406 24.7486 158.626 25.1851 158.952 25.5288L159.037 25.6163C159.301 25.8872 159.51 26.2089 159.652 26.563C159.795 26.9171 159.868 27.2966 159.868 27.6799C159.868 28.0632 159.795 28.4427 159.652 28.7968C159.51 29.1509 159.301 29.4725 159.037 29.7434C158.774 30.0146 158.462 30.2297 158.118 30.3765C157.774 30.5233 157.405 30.5988 157.033 30.5988C156.66 30.5988 156.292 30.5233 155.948 30.3765C155.604 30.2297 155.291 30.0146 155.028 29.7434L154.943 29.6559C154.609 29.3197 154.185 29.0942 153.725 29.0084C153.266 28.9226 152.792 28.9805 152.365 29.1747C151.946 29.3595 151.588 29.6665 151.337 30.0577C151.085 30.449 150.95 30.9075 150.948 31.3768V31.6247C150.948 32.3982 150.649 33.1401 150.118 33.6871C149.587 34.234 148.866 34.5413 148.115 34.5413C147.363 34.5413 146.643 34.234 146.111 33.6871C145.58 33.1401 145.281 32.3982 145.281 31.6247V31.4934C145.27 31.0107 145.119 30.5426 144.846 30.1499C144.573 29.7571 144.192 29.458 143.751 29.2913C143.324 29.0972 142.85 29.0393 142.39 29.1251C141.931 29.2109 141.507 29.4364 141.173 29.7726L141.088 29.8601C140.825 30.1313 140.512 30.3464 140.168 30.4932C139.824 30.64 139.456 30.7155 139.083 30.7155C138.711 30.7155 138.342 30.64 137.998 30.4932C137.654 30.3464 137.342 30.1313 137.079 29.8601C136.815 29.5892 136.606 29.2675 136.464 28.9135C136.321 28.5594 136.248 28.1798 136.248 27.7965C136.248 27.4133 136.321 27.0337 136.464 26.6796C136.606 26.3256 136.815 26.0039 137.079 25.733L137.164 25.6455C137.49 25.3018 137.709 24.8653 137.793 24.3922C137.876 23.9191 137.82 23.4312 137.631 22.9913C137.452 22.56 137.154 22.1921 136.773 21.933C136.393 21.6739 135.948 21.5349 135.492 21.533H135.251C134.5 21.533 133.779 21.2257 133.248 20.6787C132.716 20.1318 132.418 19.3899 132.418 18.6163C132.418 17.8428 132.716 17.1009 133.248 16.5539C133.779 16.007 134.5 15.6997 135.251 15.6997H135.379C135.848 15.6884 136.302 15.5321 136.684 15.2513C137.065 14.9704 137.356 14.5778 137.518 14.1247C137.707 13.6848 137.763 13.1969 137.679 12.7238C137.596 12.2507 137.377 11.8142 137.05 11.4705L136.965 11.383C136.702 11.1121 136.493 10.7905 136.35 10.4364C136.208 10.0823 136.134 9.70276 136.134 9.31947C136.134 8.93617 136.208 8.55663 136.35 8.20256C136.493 7.84848 136.702 7.5268 136.965 7.25592C137.229 6.98474 137.541 6.76961 137.885 6.62283C138.229 6.47605 138.598 6.4005 138.97 6.4005C139.342 6.4005 139.711 6.47605 140.055 6.62283C140.399 6.76961 140.711 6.98474 140.975 7.25592L141.06 7.34342C141.394 7.67962 141.818 7.90515 142.277 7.99093C142.737 8.07671 143.211 8.0188 143.638 7.82467H143.751C144.17 7.63981 144.528 7.33286 144.779 6.9416C145.031 6.55035 145.166 6.09186 145.168 5.62259V5.37467C145.168 4.60113 145.466 3.85926 145.998 3.31228C146.529 2.7653 147.25 2.45801 148.001 2.45801C148.753 2.45801 149.473 2.7653 150.005 3.31228C150.536 3.85926 150.835 4.60113 150.835 5.37467V5.50592C150.836 5.9752 150.972 6.43368 151.223 6.82494C151.475 7.21619 151.832 7.52314 152.251 7.70801C152.679 7.90213 153.153 7.96004 153.612 7.87426C154.072 7.78849 154.496 7.56296 154.83 7.22676L154.915 7.13926C155.178 6.86808 155.49 6.65295 155.834 6.50617C156.178 6.35939 156.547 6.28384 156.919 6.28384C157.292 6.28384 157.66 6.35939 158.004 6.50617C158.348 6.65295 158.661 6.86808 158.924 7.13926C159.187 7.41014 159.396 7.73181 159.539 8.08589C159.681 8.43997 159.755 8.8195 159.755 9.2028C159.755 9.58609 159.681 9.96563 159.539 10.3197C159.396 10.6738 159.187 10.9955 158.924 11.2663L158.839 11.3538C158.512 11.6975 158.293 12.1341 158.21 12.6071C158.126 13.0802 158.183 13.5682 158.371 14.008V14.1247C158.551 14.556 158.849 14.9239 159.229 15.183C159.609 15.4421 160.055 15.5811 160.51 15.583H160.751C161.503 15.583 162.223 15.8903 162.755 16.4373C163.286 16.9843 163.585 17.7261 163.585 18.4997C163.585 19.2732 163.286 20.0151 162.755 20.5621C162.223 21.109 161.503 21.4163 160.751 21.4163H160.624C160.168 21.4182 159.723 21.5573 159.342 21.8164C158.962 22.0755 158.664 22.4433 158.485 22.8747Z" stroke="black" stroke-width="2" stroke-linecap="round" stroke-linejoin="round"/>
</g>
<path d="M373.5 2.45801V34.5413" stroke="black" stroke-width="2" stroke-linecap="round" stroke-linejoin="round"/>
<path d="M380.792 8.29199H369.854C368.5 8.29199 367.202 8.82975 366.245 9.78697C365.288 10.7442 364.75 12.0424 364.75 13.3962C364.75 14.7499 365.288 16.0481 366.245 17.0053C367.202 17.9626 368.5 18.5003 369.854 18.5003H377.146C378.5 18.5003 379.798 19.0381 380.755 19.9953C381.712 20.9525 382.25 22.2508 382.25 23.6045C382.25 24.9582 381.712 26.2565 380.755 27.2137C379.798 28.1709 378.5 28.7087 377.146 28.7087H364.75" stroke="black" stroke-width="2" stroke-linecap="round" stroke-linejoin="round"/>
<path d="M325.707 19.7071C326.098 19.3166 326.098 18.6834 325.707 18.2929L319.343 11.9289C318.953 11.5384 318.319 11.5384 317.929 11.9289C317.538 12.3195 317.538 12.9526 317.929 13.3431L323.586 19L317.929 24.6569C317.538 25.0474 317.538 25.6805 317.929 26.0711C318.319 26.4616 318.953 26.4616 319.343 26.0711L325.707 19.7071ZM199 19V20H200.969V19V18H199V19ZM204.906 19V20H208.844V19V18H204.906V19ZM212.781 19V20H216.719V19V18H212.781V19ZM220.656 19V20H224.594V19V18H220.656V19ZM228.531 19V20H232.469V19V18H228.531V19ZM236.406 19V20H240.344V19V18H236.406V19ZM244.281 19V20H248.219V19V18H244.281V19ZM252.156 19V20H256.094V19V18H252.156V19ZM260.031 19V20H263.969V19V18H260.031V19ZM267.906 19V20H271.844V19V18H267.906V19ZM275.781 19V20H279.719V19V18H275.781V19ZM283.656 19V20H287.594V19V18H283.656V19ZM291.531 19V20H295.469V19V18H291.531V19ZM299.406 19V20H303.344V19V18H299.406V19ZM307.281 19V20H311.219V19V18H307.281V19ZM315.156 19V20H319.094V19V18H315.156V19ZM323.031 19V20H325V19V18H323.031V19Z" fill="black"/>
<path d="M250.079 12H248.971L252.175 3.27273H253.266L256.471 12H255.363L252.755 4.65341H252.687L250.079 12ZM250.488 8.59091H254.954V9.52841H250.488V8.59091ZM261.819 9.32386V5.45455H262.825V12H261.819V10.892H261.751C261.597 11.2244 261.359 11.5071 261.035 11.7401C260.711 11.9702 260.302 12.0852 259.808 12.0852C259.398 12.0852 259.035 11.9957 258.717 11.8168C258.398 11.6349 258.148 11.3622 257.967 10.9986C257.785 10.6321 257.694 10.1705 257.694 9.61364V5.45455H258.7V9.54545C258.7 10.0227 258.833 10.4034 259.1 10.6875C259.37 10.9716 259.714 11.1136 260.131 11.1136C260.381 11.1136 260.636 11.0497 260.894 10.9219C261.156 10.794 261.374 10.598 261.55 10.3338C261.729 10.0696 261.819 9.73295 261.819 9.32386ZM267.513 5.45455V6.30682H264.121V5.45455H267.513ZM265.11 3.88636H266.115V10.125C266.115 10.4091 266.157 10.6222 266.239 10.7642C266.324 10.9034 266.432 10.9972 266.563 11.0455C266.696 11.0909 266.837 11.1136 266.985 11.1136C267.096 11.1136 267.186 11.108 267.257 11.0966C267.328 11.0824 267.385 11.071 267.428 11.0625L267.632 11.9659C267.564 11.9915 267.469 12.017 267.347 12.0426C267.225 12.071 267.07 12.0852 266.882 12.0852C266.598 12.0852 266.32 12.0241 266.047 11.902C265.777 11.7798 265.553 11.5938 265.374 11.3438C265.198 11.0938 265.11 10.7784 265.11 10.3977V3.88636ZM270.172 8.0625V12H269.167V3.27273H270.172V6.47727H270.257C270.411 6.1392 270.641 5.87074 270.948 5.67188C271.257 5.47017 271.669 5.36932 272.184 5.36932C272.63 5.36932 273.02 5.45881 273.355 5.63778C273.691 5.81392 273.951 6.08523 274.135 6.4517C274.323 6.81534 274.417 7.27841 274.417 7.84091V12H273.411V7.90909C273.411 7.3892 273.276 6.98722 273.006 6.70312C272.739 6.41619 272.368 6.27273 271.894 6.27273C271.564 6.27273 271.269 6.34233 271.007 6.48153C270.749 6.62074 270.544 6.82386 270.394 7.09091C270.246 7.35795 270.172 7.68182 270.172 8.0625Z" fill="black"/>
<path d="M236.269 102.455C236.218 102.023 236.01 101.688 235.647 101.449C235.283 101.21 234.837 101.091 234.309 101.091C233.922 101.091 233.584 101.153 233.295 101.278C233.008 101.403 232.783 101.575 232.621 101.794C232.462 102.013 232.383 102.261 232.383 102.54C232.383 102.773 232.438 102.973 232.549 103.141C232.662 103.305 232.807 103.443 232.983 103.554C233.16 103.662 233.344 103.751 233.537 103.822C233.731 103.891 233.908 103.946 234.07 103.989L234.956 104.227C235.184 104.287 235.437 104.369 235.715 104.474C235.996 104.58 236.265 104.723 236.52 104.905C236.779 105.084 236.992 105.314 237.16 105.595C237.327 105.876 237.411 106.222 237.411 106.631C237.411 107.102 237.287 107.528 237.04 107.909C236.796 108.29 236.438 108.592 235.966 108.817C235.498 109.041 234.928 109.153 234.258 109.153C233.633 109.153 233.091 109.053 232.634 108.851C232.18 108.649 231.822 108.368 231.56 108.007C231.302 107.646 231.155 107.227 231.121 106.75H232.212C232.241 107.08 232.351 107.352 232.545 107.568C232.741 107.781 232.988 107.94 233.286 108.045C233.587 108.148 233.911 108.199 234.258 108.199C234.661 108.199 235.023 108.134 235.344 108.003C235.665 107.869 235.92 107.685 236.107 107.449C236.295 107.21 236.388 106.932 236.388 106.614C236.388 106.324 236.307 106.088 236.145 105.906C235.983 105.724 235.77 105.577 235.506 105.463C235.242 105.349 234.956 105.25 234.65 105.165L233.576 104.858C232.894 104.662 232.354 104.382 231.956 104.018C231.559 103.655 231.36 103.179 231.36 102.591C231.36 102.102 231.492 101.676 231.756 101.312C232.023 100.946 232.381 100.662 232.83 100.46C233.282 100.256 233.786 100.153 234.343 100.153C234.905 100.153 235.405 100.254 235.843 100.456C236.28 100.655 236.627 100.928 236.883 101.274C237.141 101.621 237.278 102.014 237.292 102.455H236.269ZM241.757 109.136C241.126 109.136 240.582 108.997 240.124 108.719C239.67 108.438 239.319 108.045 239.072 107.543C238.828 107.037 238.705 106.449 238.705 105.778C238.705 105.108 238.828 104.517 239.072 104.006C239.319 103.491 239.663 103.091 240.103 102.804C240.546 102.514 241.063 102.369 241.654 102.369C241.995 102.369 242.332 102.426 242.664 102.54C242.997 102.653 243.299 102.838 243.572 103.094C243.845 103.347 244.062 103.682 244.224 104.099C244.386 104.517 244.467 105.031 244.467 105.642V106.068H239.421V105.199H243.444C243.444 104.83 243.37 104.5 243.222 104.21C243.078 103.92 242.87 103.692 242.6 103.524C242.333 103.357 242.018 103.273 241.654 103.273C241.254 103.273 240.907 103.372 240.615 103.571C240.325 103.767 240.102 104.023 239.945 104.338C239.789 104.653 239.711 104.991 239.711 105.352V105.932C239.711 106.426 239.796 106.845 239.967 107.189C240.14 107.53 240.38 107.79 240.687 107.969C240.994 108.145 241.35 108.233 241.757 108.233C242.021 108.233 242.259 108.196 242.472 108.122C242.688 108.045 242.874 107.932 243.031 107.781C243.187 107.628 243.308 107.437 243.393 107.21L244.365 107.483C244.262 107.812 244.09 108.102 243.849 108.352C243.607 108.599 243.309 108.793 242.954 108.932C242.599 109.068 242.2 109.136 241.757 109.136ZM248.843 102.455V103.307H245.451V102.455H248.843ZM246.44 100.886H247.445V107.125C247.445 107.409 247.487 107.622 247.569 107.764C247.654 107.903 247.762 107.997 247.893 108.045C248.026 108.091 248.167 108.114 248.315 108.114C248.426 108.114 248.517 108.108 248.588 108.097C248.659 108.082 248.715 108.071 248.758 108.062L248.963 108.966C248.894 108.991 248.799 109.017 248.677 109.043C248.555 109.071 248.4 109.085 248.213 109.085C247.928 109.085 247.65 109.024 247.377 108.902C247.107 108.78 246.883 108.594 246.704 108.344C246.528 108.094 246.44 107.778 246.44 107.398V100.886ZM253.203 102.455V103.307H249.811V102.455H253.203ZM250.799 100.886H251.805V107.125C251.805 107.409 251.846 107.622 251.928 107.764C252.014 107.903 252.122 107.997 252.252 108.045C252.386 108.091 252.526 108.114 252.674 108.114C252.785 108.114 252.876 108.108 252.947 108.097C253.018 108.082 253.075 108.071 253.117 108.062L253.322 108.966C253.254 108.991 253.159 109.017 253.036 109.043C252.914 109.071 252.759 109.085 252.572 109.085C252.288 109.085 252.009 109.024 251.737 108.902C251.467 108.78 251.242 108.594 251.063 108.344C250.887 108.094 250.799 107.778 250.799 107.398V100.886ZM255.862 100.273V109H254.856V100.273H255.862ZM260.448 109.136C259.817 109.136 259.273 108.997 258.816 108.719C258.361 108.438 258.01 108.045 257.763 107.543C257.519 107.037 257.397 106.449 257.397 105.778C257.397 105.108 257.519 104.517 257.763 104.006C258.01 103.491 258.354 103.091 258.795 102.804C259.238 102.514 259.755 102.369 260.346 102.369C260.687 102.369 261.023 102.426 261.356 102.54C261.688 102.653 261.991 102.838 262.263 103.094C262.536 103.347 262.753 103.682 262.915 104.099C263.077 104.517 263.158 105.031 263.158 105.642V106.068H258.113V105.199H262.135C262.135 104.83 262.062 104.5 261.914 104.21C261.769 103.92 261.562 103.692 261.292 103.524C261.025 103.357 260.709 103.273 260.346 103.273C259.945 103.273 259.599 103.372 259.306 103.571C259.016 103.767 258.793 104.023 258.637 104.338C258.481 104.653 258.403 104.991 258.403 105.352V105.932C258.403 106.426 258.488 106.845 258.658 107.189C258.831 107.53 259.072 107.79 259.378 107.969C259.685 108.145 260.042 108.233 260.448 108.233C260.712 108.233 260.951 108.196 261.164 108.122C261.38 108.045 261.566 107.932 261.722 107.781C261.878 107.628 261.999 107.437 262.084 107.21L263.056 107.483C262.954 107.812 262.782 108.102 262.54 108.352C262.299 108.599 262.001 108.793 261.645 108.932C261.29 109.068 260.891 109.136 260.448 109.136ZM264.688 109V102.455H265.66V103.477H265.745C265.881 103.128 266.101 102.857 266.405 102.663C266.709 102.467 267.074 102.369 267.501 102.369C267.932 102.369 268.292 102.467 268.579 102.663C268.868 102.857 269.094 103.128 269.256 103.477H269.324C269.492 103.139 269.743 102.871 270.079 102.672C270.414 102.47 270.816 102.369 271.285 102.369C271.87 102.369 272.349 102.553 272.721 102.919C273.093 103.283 273.279 103.849 273.279 104.619V109H272.273V104.619C272.273 104.136 272.141 103.791 271.877 103.584C271.613 103.376 271.302 103.273 270.944 103.273C270.483 103.273 270.127 103.412 269.874 103.69C269.621 103.966 269.495 104.315 269.495 104.739V109H268.472V104.517C268.472 104.145 268.351 103.845 268.11 103.618C267.868 103.388 267.557 103.273 267.177 103.273C266.915 103.273 266.671 103.342 266.444 103.482C266.219 103.621 266.037 103.814 265.898 104.061C265.762 104.305 265.694 104.588 265.694 104.909V109H264.688ZM277.862 109.136C277.231 109.136 276.687 108.997 276.23 108.719C275.775 108.438 275.425 108.045 275.177 107.543C274.933 107.037 274.811 106.449 274.811 105.778C274.811 105.108 274.933 104.517 275.177 104.006C275.425 103.491 275.768 103.091 276.209 102.804C276.652 102.514 277.169 102.369 277.76 102.369C278.101 102.369 278.437 102.426 278.77 102.54C279.102 102.653 279.405 102.838 279.677 103.094C279.95 103.347 280.167 103.682 280.329 104.099C280.491 104.517 280.572 105.031 280.572 105.642V106.068H275.527V105.199H279.55C279.55 104.83 279.476 104.5 279.328 104.21C279.183 103.92 278.976 103.692 278.706 103.524C278.439 103.357 278.123 103.273 277.76 103.273C277.359 103.273 277.013 103.372 276.72 103.571C276.43 103.767 276.207 104.023 276.051 104.338C275.895 104.653 275.817 104.991 275.817 105.352V105.932C275.817 106.426 275.902 106.845 276.072 107.189C276.246 107.53 276.486 107.79 276.792 107.969C277.099 108.145 277.456 108.233 277.862 108.233C278.126 108.233 278.365 108.196 278.578 108.122C278.794 108.045 278.98 107.932 279.136 107.781C279.292 107.628 279.413 107.437 279.498 107.21L280.47 107.483C280.368 107.812 280.196 108.102 279.954 108.352C279.713 108.599 279.415 108.793 279.059 108.932C278.704 109.068 278.305 109.136 277.862 109.136ZM283.108 105.062V109H282.102V102.455H283.074V103.477H283.159C283.312 103.145 283.545 102.878 283.858 102.676C284.17 102.472 284.574 102.369 285.068 102.369C285.511 102.369 285.899 102.46 286.231 102.642C286.564 102.821 286.822 103.094 287.007 103.46C287.192 103.824 287.284 104.284 287.284 104.841V109H286.278V104.909C286.278 104.395 286.145 103.994 285.878 103.707C285.611 103.418 285.244 103.273 284.778 103.273C284.457 103.273 284.17 103.342 283.917 103.482C283.667 103.621 283.47 103.824 283.325 104.091C283.18 104.358 283.108 104.682 283.108 105.062ZM291.968 102.455V103.307H288.576V102.455H291.968ZM289.565 100.886H290.57V107.125C290.57 107.409 290.612 107.622 290.694 107.764C290.779 107.903 290.887 107.997 291.018 108.045C291.151 108.091 291.292 108.114 291.44 108.114C291.551 108.114 291.642 108.108 291.713 108.097C291.784 108.082 291.84 108.071 291.883 108.062L292.088 108.966C292.019 108.991 291.924 109.017 291.802 109.043C291.68 109.071 291.525 109.085 291.338 109.085C291.053 109.085 290.775 109.024 290.502 108.902C290.232 108.78 290.008 108.594 289.829 108.344C289.653 108.094 289.565 107.778 289.565 107.398V100.886Z" fill="black"/>
<path d="M362 51V42.2727H365.051C365.659 42.2727 366.161 42.3778 366.556 42.5881C366.95 42.7955 367.244 43.0753 367.438 43.4276C367.631 43.777 367.727 44.1648 367.727 44.5909C367.727 44.9659 367.661 45.2756 367.527 45.5199C367.396 45.7642 367.223 45.9574 367.007 46.0994C366.794 46.2415 366.563 46.3466 366.313 46.4148V46.5C366.58 46.517 366.848 46.6108 367.118 46.7812C367.388 46.9517 367.614 47.196 367.796 47.5142C367.977 47.8324 368.068 48.2216 368.068 48.6818C368.068 49.1193 367.969 49.5128 367.77 49.8622C367.571 50.2116 367.257 50.4886 366.828 50.6932C366.399 50.8977 365.841 51 365.154 51H362ZM363.057 50.0625H365.154C365.844 50.0625 366.334 49.929 366.624 49.6619C366.916 49.392 367.063 49.0653 367.063 48.6818C367.063 48.3864 366.987 48.1136 366.837 47.8636C366.686 47.6108 366.472 47.4091 366.193 47.2585C365.915 47.1051 365.585 47.0284 365.205 47.0284H363.057V50.0625ZM363.057 46.108H365.017C365.335 46.108 365.622 46.0455 365.878 45.9205C366.137 45.7955 366.341 45.6193 366.492 45.392C366.645 45.1648 366.722 44.8977 366.722 44.5909C366.722 44.2074 366.588 43.8821 366.321 43.6151C366.054 43.3452 365.631 43.2102 365.051 43.2102H363.057V46.108ZM371.595 51.1534C371.18 51.1534 370.803 51.0753 370.465 50.919C370.127 50.7599 369.859 50.5312 369.66 50.233C369.461 49.9318 369.362 49.5682 369.362 49.142C369.362 48.767 369.436 48.4631 369.583 48.2301C369.731 47.9943 369.928 47.8097 370.176 47.6761C370.423 47.5426 370.695 47.4432 370.994 47.3778C371.295 47.3097 371.597 47.2557 371.901 47.2159C372.299 47.1648 372.622 47.1264 372.869 47.1009C373.119 47.0724 373.301 47.0256 373.414 46.9602C373.531 46.8949 373.589 46.7812 373.589 46.6193V46.5852C373.589 46.1648 373.474 45.8381 373.244 45.6051C373.017 45.3722 372.671 45.2557 372.208 45.2557C371.728 45.2557 371.352 45.3608 371.079 45.571C370.806 45.7812 370.615 46.0057 370.504 46.2443L369.549 45.9034C369.72 45.5057 369.947 45.196 370.231 44.9744C370.518 44.75 370.83 44.5937 371.169 44.5057C371.509 44.4148 371.845 44.3693 372.174 44.3693C372.384 44.3693 372.626 44.3949 372.899 44.446C373.174 44.4943 373.44 44.5952 373.695 44.7486C373.954 44.902 374.169 45.1335 374.339 45.4432C374.509 45.7528 374.595 46.1676 374.595 46.6875V51H373.589V50.1136H373.538C373.47 50.2557 373.356 50.4077 373.197 50.5696C373.038 50.7315 372.826 50.8693 372.562 50.983C372.298 51.0966 371.975 51.1534 371.595 51.1534ZM371.748 50.25C372.146 50.25 372.481 50.1719 372.754 50.0156C373.029 49.8594 373.237 49.6577 373.376 49.4105C373.518 49.1634 373.589 48.9034 373.589 48.6307V47.7102C373.546 47.7614 373.453 47.8082 373.308 47.8509C373.166 47.8906 373.001 47.9261 372.813 47.9574C372.629 47.9858 372.448 48.0114 372.272 48.0341C372.099 48.054 371.958 48.071 371.85 48.0852C371.589 48.1193 371.345 48.1747 371.117 48.2514C370.893 48.3253 370.711 48.4375 370.572 48.5881C370.436 48.7358 370.367 48.9375 370.367 49.1932C370.367 49.5426 370.497 49.8068 370.755 49.9858C371.017 50.1619 371.347 50.25 371.748 50.25ZM377.436 47.0625V51H376.43V44.4545H377.402V45.4773H377.487C377.64 45.1449 377.873 44.8778 378.186 44.6761C378.498 44.4716 378.902 44.3693 379.396 44.3693C379.839 44.3693 380.227 44.4602 380.559 44.642C380.892 44.821 381.15 45.0938 381.335 45.4602C381.52 45.8239 381.612 46.2841 381.612 46.8409V51H380.606V46.9091C380.606 46.3949 380.473 45.9943 380.206 45.7074C379.939 45.4176 379.572 45.2727 379.106 45.2727C378.785 45.2727 378.498 45.3423 378.246 45.4815C377.996 45.6207 377.798 45.8239 377.653 46.0909C377.508 46.358 377.436 46.6818 377.436 47.0625ZM384.387 48.6136L384.37 47.3693H384.575L387.438 44.4545H388.683L385.632 47.5398H385.546L384.387 48.6136ZM383.45 51V42.2727H384.455V51H383.45ZM387.609 51L385.052 47.7614L385.768 47.0625L388.887 51H387.609Z" fill="black"/>
<path d="M137.613 51V42.2727H140.562C141.247 42.2727 141.807 42.3963 142.241 42.6435C142.679 42.8878 143.003 43.2188 143.213 43.6364C143.423 44.054 143.528 44.5199 143.528 45.0341C143.528 45.5483 143.423 46.0156 143.213 46.4361C143.006 46.8565 142.684 47.1918 142.25 47.4418C141.815 47.6889 141.258 47.8125 140.579 47.8125H138.466V46.875H140.545C141.014 46.875 141.39 46.794 141.675 46.6321C141.959 46.4702 142.165 46.2514 142.292 45.9759C142.423 45.6974 142.488 45.3835 142.488 45.0341C142.488 44.6847 142.423 44.3722 142.292 44.0966C142.165 43.821 141.957 43.6051 141.67 43.4489C141.383 43.2898 141.003 43.2102 140.528 43.2102H138.67V51H137.613ZM150.003 44.4545C149.952 44.0227 149.745 43.6875 149.381 43.4489C149.018 43.2102 148.572 43.0909 148.043 43.0909C147.657 43.0909 147.319 43.1534 147.029 43.2784C146.742 43.4034 146.518 43.5753 146.356 43.794C146.197 44.0128 146.117 44.2614 146.117 44.5398C146.117 44.7727 146.172 44.973 146.283 45.1406C146.397 45.3054 146.542 45.4432 146.718 45.554C146.894 45.6619 147.079 45.7514 147.272 45.8224C147.465 45.8906 147.643 45.946 147.805 45.9886L148.691 46.2273C148.918 46.2869 149.171 46.3693 149.449 46.4744C149.731 46.5795 149.999 46.723 150.255 46.9048C150.513 47.0838 150.726 47.3139 150.894 47.5952C151.062 47.8764 151.145 48.2216 151.145 48.6307C151.145 49.1023 151.022 49.5284 150.775 49.9091C150.53 50.2898 150.172 50.5923 149.701 50.8168C149.232 51.0412 148.662 51.1534 147.992 51.1534C147.367 51.1534 146.826 51.0526 146.368 50.8509C145.914 50.6491 145.556 50.3679 145.295 50.0071C145.036 49.6463 144.89 49.2273 144.856 48.75H145.947C145.975 49.0795 146.086 49.3523 146.279 49.5682C146.475 49.7812 146.722 49.9403 147.02 50.0455C147.322 50.1477 147.645 50.1989 147.992 50.1989C148.395 50.1989 148.758 50.1335 149.079 50.0028C149.4 49.8693 149.654 49.6847 149.841 49.4489C150.029 49.2102 150.123 48.9318 150.123 48.6136C150.123 48.3239 150.042 48.0881 149.88 47.9062C149.718 47.7244 149.505 47.5767 149.241 47.4631C148.976 47.3494 148.691 47.25 148.384 47.1648L147.31 46.858C146.628 46.6619 146.089 46.3821 145.691 46.0185C145.293 45.6548 145.094 45.179 145.094 44.5909C145.094 44.1023 145.226 43.6761 145.491 43.3125C145.758 42.946 146.116 42.6619 146.564 42.4602C147.016 42.2557 147.52 42.1534 148.077 42.1534C148.64 42.1534 149.14 42.2543 149.577 42.456C150.015 42.6548 150.361 42.9276 150.617 43.2741C150.876 43.6207 151.012 44.0142 151.026 44.4545H150.003ZM152.883 51V42.2727H155.832C156.517 42.2727 157.076 42.3963 157.511 42.6435C157.948 42.8878 158.272 43.2188 158.482 43.6364C158.693 44.054 158.798 44.5199 158.798 45.0341C158.798 45.5483 158.693 46.0156 158.482 46.4361C158.275 46.8565 157.954 47.1918 157.519 47.4418C157.085 47.6889 156.528 47.8125 155.849 47.8125H153.735V46.875H155.815C156.284 46.875 156.66 46.794 156.944 46.6321C157.228 46.4702 157.434 46.2514 157.562 45.9759C157.693 45.6974 157.758 45.3835 157.758 45.0341C157.758 44.6847 157.693 44.3722 157.562 44.0966C157.434 43.821 157.227 43.6051 156.94 43.4489C156.653 43.2898 156.272 43.2102 155.798 43.2102H153.94V51H152.883Z" fill="black"/>
<path d="M148 55V116H375V59.3571" stroke="black" stroke-dasharray="2 2"/>
<path d="M107.707 19.7071C108.098 19.3166 108.098 18.6834 107.707 18.2929L101.343 11.9289C100.953 11.5384 100.319 11.5384 99.9289 11.9289C99.5384 12.3195 99.5384 12.9526 99.9289 13.3431L105.586 19L99.9289 24.6569C99.5384 25.0474 99.5384 25.6805 99.9289 26.0711C100.319 26.4616 100.953 26.4616 101.343 26.0711L107.707 19.7071ZM66 19V20H107V19V18H66V19Z" fill="black"/>
<defs>
<clipPath id="clip0_492_95">
<rect width="34" height="35" fill="white" transform="translate(131 1)"/>
</clipPath>
</defs>
</svg>
